<svg width="169.000000" height="195.000000" viewBox="0 0 169 195" fill="none" xmlns="http://www.w3.org/2000/svg" xmlns:xlink="http://www.w3.org/1999/xlink">
	<desc>
			Created with Pixso.
	</desc>
	<defs>
		<filter id="filter_11_500_dd" x="8.000000" y="-2.000000" width="161.239990" height="194.750000" filterUnits="userSpaceOnUse" color-interpolation-filters="sRGB">
			<feFlood flood-opacity="0" result="BackgroundImageFix"/>
			<feColorMatrix in="SourceAlpha" type="matrix" values="0 0 0 0 0 0 0 0 0 0 0 0 0 0 0 0 0 0 127 0" result="hardAlpha"/>
			<feOffset dx="0" dy="4"/>
			<feGaussianBlur stdDeviation="5"/>
			<feComposite in2="hardAlpha" operator="out" k2="-1" k3="1"/>
			<feColorMatrix type="matrix" values="0 0 0 0 0 0 0 0 0 0 0 0 0 0 0 0 0 0 0.25 0"/>
			<feBlend mode="normal" in2="BackgroundImageFix" result="effect_dropShadow_1"/>
			<feBlend mode="normal" in="SourceGraphic" in2="effect_dropShadow_1" result="shape"/>
		</filter>
		<filter id="filter_11_507_dd" x="0.000000" y="116.759979" width="100.000000" height="50.000000" filterUnits="userSpaceOnUse" color-interpolation-filters="sRGB">
			<feFlood flood-opacity="0" result="BackgroundImageFix"/>
			<feColorMatrix in="SourceAlpha" type="matrix" values="0 0 0 0 0 0 0 0 0 0 0 0 0 0 0 0 0 0 127 0" result="hardAlpha"/>
			<feOffset dx="0" dy="4"/>
			<feGaussianBlur stdDeviation="3"/>
			<feComposite in2="hardAlpha" operator="out" k2="-1" k3="1"/>
			<feColorMatrix type="matrix" values="0 0 0 0 0 0 0 0 0 0 0 0 0 0 0 0 0 0 0.25 0"/>
			<feBlend mode="normal" in2="BackgroundImageFix" result="effect_dropShadow_1"/>
			<feBlend mode="normal" in="SourceGraphic" in2="effect_dropShadow_1" result="shape"/>
		</filter>
		<filter id="filter_11_520_dd" x="34.000000" y="79.000000" width="48.000000" height="26.000000" filterUnits="userSpaceOnUse" color-interpolation-filters="sRGB">
			<feFlood flood-opacity="0" result="BackgroundImageFix"/>
			<feColorMatrix in="SourceAlpha" type="matrix" values="0 0 0 0 0 0 0 0 0 0 0 0 0 0 0 0 0 0 127 0" result="hardAlpha"/>
			<feOffset dx="0" dy="4"/>
			<feGaussianBlur stdDeviation="3"/>
			<feComposite in2="hardAlpha" operator="out" k2="-1" k3="1"/>
			<feColorMatrix type="matrix" values="0 0 0 0 0 0 0 0 0 0 0 0 0 0 0 0 0 0 0.25 0"/>
			<feBlend mode="normal" in2="BackgroundImageFix" result="effect_dropShadow_1"/>
			<feBlend mode="normal" in="SourceGraphic" in2="effect_dropShadow_1" result="shape"/>
		</filter>
		<filter id="filter_11_525_dd" x="34.000000" y="95.000000" width="65.000000" height="26.000000" filterUnits="userSpaceOnUse" color-interpolation-filters="sRGB">
			<feFlood flood-opacity="0" result="BackgroundImageFix"/>
			<feColorMatrix in="SourceAlpha" type="matrix" values="0 0 0 0 0 0 0 0 0 0 0 0 0 0 0 0 0 0 127 0" result="hardAlpha"/>
			<feOffset dx="0" dy="4"/>
			<feGaussianBlur stdDeviation="3"/>
			<feComposite in2="hardAlpha" operator="out" k2="-1" k3="1"/>
			<feColorMatrix type="matrix" values="0 0 0 0 0 0 0 0 0 0 0 0 0 0 0 0 0 0 0.25 0"/>
			<feBlend mode="normal" in2="BackgroundImageFix" result="effect_dropShadow_1"/>
			<feBlend mode="normal" in="SourceGraphic" in2="effect_dropShadow_1" result="shape"/>
		</filter>
		<filter id="filter_11_1307_dd" x="31.700684" y="130.631836" width="35.936768" height="18.769531" filterUnits="userSpaceOnUse" color-interpolation-filters="sRGB">
			<feFlood flood-opacity="0" result="BackgroundImageFix"/>
			<feColorMatrix in="SourceAlpha" type="matrix" values="0 0 0 0 0 0 0 0 0 0 0 0 0 0 0 0 0 0 127 0" result="hardAlpha"/>
			<feOffset dx="0" dy="5"/>
			<feGaussianBlur stdDeviation="0.333333"/>
			<feComposite in2="hardAlpha" operator="out" k2="-1" k3="1"/>
			<feColorMatrix type="matrix" values="0 0 0 0 0 0 0 0 0 0 0 0 0 0 0 0 0 0 0.25 0"/>
			<feBlend mode="normal" in2="BackgroundImageFix" result="effect_dropShadow_1"/>
			<feBlend mode="normal" in="SourceGraphic" in2="effect_dropShadow_1" result="shape"/>
		</filter>
		<filter id="filter_11_818_dd" x="38.500000" y="28.500000" width="50.219971" height="50.220001" filterUnits="userSpaceOnUse" color-interpolation-filters="sRGB">
			<feFlood flood-opacity="0" result="BackgroundImageFix"/>
			<feColorMatrix in="SourceAlpha" type="matrix" values="0 0 0 0 0 0 0 0 0 0 0 0 0 0 0 0 0 0 127 0" result="hardAlpha"/>
			<feOffset dx="0" dy="4"/>
			<feGaussianBlur stdDeviation="1.5"/>
			<feComposite in2="hardAlpha" operator="out" k2="-1" k3="1"/>
			<feColorMatrix type="matrix" values="0 0 0 0 0 0 0 0 0 0 0 0 0 0 0 0 0 0 0.25 0"/>
			<feBlend mode="normal" in2="BackgroundImageFix" result="effect_dropShadow_1"/>
			<feBlend mode="normal" in="SourceGraphic" in2="effect_dropShadow_1" result="shape"/>
		</filter>
		<clipPath id="clip11_1301">
			<rect id="下载 (1)" width="31.000000" height="27.000000" transform="translate(48.000000 38.000000)" fill="white"/>
		</clipPath>
		<clipPath id="clip11_497">
			<rect id="前端" width="169.000000" height="195.000000" fill="white"/>
		</clipPath>
		<linearGradient id="paint_linear_11_500_0" x1="78.108337" y1="173.749908" x2="79.159515" y2="27.946184" gradientUnits="userSpaceOnUse">
			<stop stop-color="#E3E9EF"/>
			<stop offset="1.000000" stop-color="#F6F9FC"/>
		</linearGradient>
		<linearGradient id="paint_linear_11_502_0" x1="74.577332" y1="8.869995" x2="74.577332" y2="157.813034" gradientUnits="userSpaceOnUse">
			<stop stop-color="#E3E9EF"/>
			<stop offset="1.000000" stop-color="#F6F9FC"/>
		</linearGradient>
		<linearGradient id="paint_linear_11_504_0" x1="99.662155" y1="19.869980" x2="100.652328" y2="150.765976" gradientUnits="userSpaceOnUse">
			<stop stop-color="#E3E9EF"/>
			<stop offset="1.000000" stop-color="#F6F9FC"/>
		</linearGradient>
		<linearGradient id="paint_linear_11_507_0" x1="90.999992" y1="139.039963" x2="8.999983" y2="137.759979" gradientUnits="userSpaceOnUse">
			<stop stop-color="#34495E"/>
			<stop offset="1.000000" stop-color="#41B883"/>
		</linearGradient>
		<linearGradient id="paint_linear_11_517_0" x1="123.557037" y1="83.999886" x2="123.647064" y2="89.615883" gradientUnits="userSpaceOnUse">
			<stop stop-color="#E3E9EF"/>
			<stop offset="1.000000" stop-color="#F6F9FC"/>
		</linearGradient>
		<linearGradient id="paint_linear_11_520_0" x1="43.000000" y1="87.999992" x2="73.000000" y2="87.999992" gradientUnits="userSpaceOnUse">
			<stop stop-color="#34495E"/>
			<stop offset="0.885000" stop-color="#41B883"/>
			<stop offset="1.000000" stop-color="#41B883"/>
		</linearGradient>
		<linearGradient id="paint_linear_11_522_0" x1="123.557037" y1="99.999886" x2="123.647064" y2="105.615883" gradientUnits="userSpaceOnUse">
			<stop stop-color="#E3E9EF"/>
			<stop offset="1.000000" stop-color="#F6F9FC"/>
		</linearGradient>
		<linearGradient id="paint_linear_11_525_0" x1="43.000000" y1="104.000000" x2="90.000000" y2="104.000000" gradientUnits="userSpaceOnUse">
			<stop stop-color="#34495E"/>
			<stop offset="0.885000" stop-color="#41B883"/>
			<stop offset="1.000000" stop-color="#41B883"/>
		</linearGradient>
		<linearGradient id="paint_linear_11_818_0" x1="74.863014" y1="28.999998" x2="72.101288" y2="69.024620" gradientUnits="userSpaceOnUse">
			<stop stop-color="#E3E9EF"/>
			<stop offset="1.000000" stop-color="#F6F9FC"/>
		</linearGradient>
	</defs>
	<g clip-path="url(#clip11_497)">
		<g filter="url(#filter_11_500_dd)">
			<path id="路径_20687-2" d="M37.58 9L108.1 9L110.97 9.28003L113.68 10.11L116.19 11.45L118.41 13.29L149.97 44.98L151.8 47.22L153.13 49.73L153.96 52.46L154.24 55.34L154.24 159.11L154 161.77L153.34 164.22L152.26 166.49L150.81 168.54L149.08 170.28L147.03 171.74L144.77 172.83L142.33 173.5L139.66 173.75L37.58 173.75L34.92 173.5L32.47 172.83L30.21 171.74L28.16 170.28L26.4301 168.54L24.98 166.49L23.9 164.22L23.24 161.77L23 159.11L23 23.64L23.24 20.97L23.9 18.53L24.98 16.26L26.4301 14.21L28.16 12.46L30.21 11.01L32.47 9.91998L34.92 9.25L37.58 9Z" fill-rule="nonzero" fill="url(#paint_linear_11_500_0)"/>
		</g>
		<path id="路径_20689" d="M149.97 44.86L118.41 13.16L116.19 11.33L113.68 9.98999L110.97 9.15997L108.1 8.87L37.58 8.87L34.92 9.13L32.47 9.79999L30.21 10.88L28.16 12.34L26.4301 14.08L24.98 16.14L23.9 18.4L23.24 20.85L23 23.52L23 158.98L23.24 161.65L23.9 164.1L24.98 166.36L26.4301 168.42L28.16 170.16L30.21 171.62L32.47 172.7L34.92 173.37L37.58 173.63L139.66 173.63L142.32 173.37L144.77 172.7L147.03 171.62L149.08 170.16L150.81 168.42L152.26 166.36L153.34 164.1L154 161.65L154.24 158.98L154.24 55.21L153.96 52.34L153.13 49.61L151.79 47.1L149.97 44.86ZM150.24 158.99L150.06 160.92L149.58 162.7L148.8 164.35L147.75 165.84L146.49 167.1L145.01 168.16L143.37 168.95L141.59 169.44L139.66 169.63L37.58 169.63L35.65 169.44L33.87 168.95L32.23 168.16L30.75 167.1L29.49 165.84L28.4399 164.35L27.66 162.7L27.1801 160.92L27 158.99L27 23.52L27.1801 21.58L27.66 19.8L28.4399 18.16L29.49 16.67L30.75 15.4L32.23 14.34L33.87 13.55L35.65 13.06L37.58 12.87L108.1 12.87L110.18 13.08L112.15 13.68L113.96 14.66L115.58 15.98L147.13 47.68L148.46 49.31L149.43 51.14L150.03 53.12L150.24 55.21L150.24 158.99Z" fill-rule="nonzero" fill="url(#paint_linear_11_502_0)"/>
		<path id="路径_20690" d="M143 154.09L142.86 155.85L142.45 157.46L141.77 158.96L140.3 160.93L138.38 162.47L136.9 163.21L135.31 163.68L133.56 163.87L42.45 163.87L40.6899 163.68L39.1 163.21L37.62 162.47L35.7 160.93L34.23 158.96L33.55 157.46L33.14 155.85L33 154.09L33 29.65L33.13 27.89L33.55 26.28L34.23 24.78L35.7 22.81L37.62 21.27L39.1 20.53L40.6899 20.07L42.45 19.87L105.39 19.87L107.23 20.06L109 20.61L110.63 21.52L112.06 22.73L140.23 51.85L141.41 53.33L142.28 55.02L142.82 56.86L143 58.77L143 154.09Z" fill-rule="nonzero" fill="url(#paint_linear_11_504_0)"/>
		<g filter="url(#filter_11_507_dd)">
			<path id="矩形_4563-2" d="M15 121.76L85 121.76L86.63 121.99L88.03 122.57L89.24 123.51L90.1899 124.73L90.77 126.13L91 127.76L91 147.76L90.77 149.39L90.1899 150.78L89.24 152L88.03 152.94L86.63 153.53L85 153.76L15 153.76L13.37 153.53L11.97 152.94L10.76 152L9.81006 150.78L9.22998 149.39L9 147.76L9 127.76L9.22998 126.13L9.81006 124.73L10.76 123.51L11.97 122.57L13.37 121.99L15 121.76Z" fill-rule="nonzero" fill="url(#paint_linear_11_507_0)"/>
		</g>
		<path id="矩形_4567" d="M47 84L129 84L130.57 84.32L131.83 85.17L132.68 86.43L133 88L132.68 89.57L131.83 90.83L130.57 91.68L129 92L47 92L45.4301 91.68L44.17 90.83L43.3199 89.57L43 88L43.3199 86.43L44.17 85.17L45.4301 84.32L47 84Z" fill-rule="nonzero" fill="url(#paint_linear_11_517_0)"/>
		<g filter="url(#filter_11_520_dd)">
			<path id="矩形_4568-2" d="M47 84L69 84L70.5699 84.32L71.83 85.17L72.6801 86.43L73 88L72.6801 89.56L71.83 90.82L70.5699 91.68L69 92L47 92L45.4301 91.68L44.17 90.82L43.3199 89.56L43 88L43.3199 86.43L44.17 85.17L45.4301 84.32L47 84Z" fill-rule="nonzero" fill="url(#paint_linear_11_520_0)"/>
		</g>
		<path id="矩形_4569" d="M47 100L129 100L130.57 100.32L131.83 101.17L132.68 102.43L133 104L132.68 105.57L131.83 106.83L130.57 107.68L129 108L47 108L45.4301 107.68L44.17 106.83L43.3199 105.57L43 104L43.3199 102.43L44.17 101.17L45.4301 100.32L47 100Z" fill-rule="nonzero" fill="url(#paint_linear_11_522_0)"/>
		<g filter="url(#filter_11_525_dd)">
			<path id="矩形_4570-2" d="M47 100L86 100L87.5699 100.32L88.83 101.17L89.6801 102.43L90 104L89.6801 105.56L88.83 106.82L87.5699 107.68L86 108L47 108L45.4301 107.68L44.17 106.82L43.3199 105.56L43 104L43.3199 102.43L44.17 101.17L45.4301 100.32L47 100Z" fill-rule="nonzero" fill="url(#paint_linear_11_525_0)"/>
		</g>
		<g filter="url(#filter_11_1307_dd)">
			<path id="前  端" d="M35.3052 131.5L32.7007 131.5L32.7007 133.264L45.2993 133.264L45.2993 131.5L42.6948 131.5L43.0024 130.632L41.0986 130.632L40.791 131.5L37.209 131.5L36.9014 130.632L34.9976 130.632L35.3052 131.5ZM60.6868 130.98L58.9778 130.98L58.9778 134.258L66.2307 134.258L66.2307 130.98L64.5217 130.98L64.5217 132.549L63.5544 132.549L63.5544 130.659L61.7908 130.659L61.7908 132.549L60.6868 132.549L60.6868 130.98ZM55.2693 132.409L53.967 132.409L53.967 134.231L58.3625 134.231L58.3625 132.409L57.074 132.409L57.074 130.799L55.2693 130.799L55.2693 132.409ZM43.228 141.607L41.3105 141.607L41.3105 143.401L45.019 143.401L45.019 134.005L43.228 134.005L43.228 141.607ZM39.1128 134.231L33.0083 134.231L33.0083 143.401L34.772 143.401L34.772 141.706L37.3491 141.706L37.3491 143.401L39.1128 143.401L39.1128 134.231ZM42.0112 134.607L40.2612 134.607L40.2612 140.643L42.0112 140.643L42.0112 134.607ZM55.9119 140.195L55.5325 134.874L54.0081 134.874L54.3875 140.195L55.9119 140.195ZM58.2498 134.874L56.7253 134.874L56.3459 140.195L57.8704 140.195L58.2498 134.874ZM61.7771 137.731L58.6975 137.731L58.6975 143.401L60.3074 143.401L60.3074 139.467L60.9534 139.467L60.9534 143.401L62.283 143.401L62.283 139.467L62.9392 139.467L62.9392 143.401L64.2688 143.401L64.2688 139.467L64.9148 139.467L64.9148 143.401L66.511 143.401L66.511 137.731L63.5989 137.731L63.5989 136.805L66.6375 136.805L66.6375 135.041L58.5847 135.041L58.5847 136.805L61.7771 136.805L61.7771 137.731ZM37.3491 135.967L37.3491 137.184L34.772 137.184L34.772 135.967L37.3491 135.967ZM37.3491 138.879L37.3491 140.011L34.772 140.011L34.772 138.879L37.3491 138.879ZM58.489 140.585L53.8406 140.865L53.8406 142.701L58.489 142.42L58.489 140.585Z" fill-rule="evenodd" fill="#FFFFFF"/>
		</g>
		<g filter="url(#filter_11_818_dd)">
			<path id="矩形_4983-2" d="M51 29L76.22 29L78.36 29.29L80.26 30.09L81.87 31.34L83.13 32.96L83.9301 34.86L84.22 37L84.22 62.22L83.9301 64.36L83.13 66.25L81.87 67.87L80.26 69.12L78.36 69.93L76.22 70.22L51 70.22L48.86 69.93L46.96 69.12L45.34 67.87L44.09 66.25L43.29 64.36L43 62.22L43 37L43.29 34.86L44.09 32.96L45.34 31.34L46.96 30.09L48.86 29.29L51 29Z" fill-rule="nonzero" fill="url(#paint_linear_11_818_0)"/>
		</g>
		<g clip-path="url(#clip11_1301)">
			<path id="path" d="M67.0609 38.0001L63.4847 44.2269L59.9086 38.0001L47.9994 38.0001L63.4849 64.963L78.9703 38.0001L67.0609 38.0001Z" fill-rule="nonzero" fill="#41B883"/>
			<path id="path" d="M67.0609 38.0001L63.4847 44.2269L59.9086 38.0001L54.1936 38.0001L63.4849 54.1775L72.7761 38.0001L67.0609 38.0001Z" fill-rule="nonzero" fill="#34495E"/>
		</g>
	</g>
</svg>
