<svg width="161.000000" height="195.000000" viewBox="0 0 161 195" fill="none" xmlns="http://www.w3.org/2000/svg" xmlns:xlink="http://www.w3.org/1999/xlink">
	<desc>
			Created with Pixso.
	</desc>
	<defs>
		<filter id="filter_11_372_dd" x="0.000000" y="-2.000000" width="161.239990" height="194.760010" filterUnits="userSpaceOnUse" color-interpolation-filters="sRGB">
			<feFlood flood-opacity="0" result="BackgroundImageFix"/>
			<feColorMatrix in="SourceAlpha" type="matrix" values="0 0 0 0 0 0 0 0 0 0 0 0 0 0 0 0 0 0 127 0" result="hardAlpha"/>
			<feOffset dx="0" dy="4"/>
			<feGaussianBlur stdDeviation="5"/>
			<feComposite in2="hardAlpha" operator="out" k2="-1" k3="1"/>
			<feColorMatrix type="matrix" values="0 0 0 0 0 0 0 0 0 0 0 0 0 0 0 0 0 0 0.25 0"/>
			<feBlend mode="normal" in2="BackgroundImageFix" result="effect_dropShadow_1"/>
			<feBlend mode="normal" in="SourceGraphic" in2="effect_dropShadow_1" result="shape"/>
		</filter>
		<filter id="filter_11_1316_dd" x="75.500000" y="56.500000" width="59.000000" height="59.000000" filterUnits="userSpaceOnUse" color-interpolation-filters="sRGB">
			<feFlood flood-opacity="0" result="BackgroundImageFix"/>
			<feColorMatrix in="SourceAlpha" type="matrix" values="0 0 0 0 0 0 0 0 0 0 0 0 0 0 0 0 0 0 127 0" result="hardAlpha"/>
			<feOffset dx="0" dy="4"/>
			<feGaussianBlur stdDeviation="1.5"/>
			<feComposite in2="hardAlpha" operator="out" k2="-1" k3="1"/>
			<feColorMatrix type="matrix" values="0 0 0 0 0 0 0 0 0 0 0 0 0 0 0 0 0 0 0.25 0"/>
			<feBlend mode="normal" in2="BackgroundImageFix" result="effect_dropShadow_1"/>
			<feBlend mode="normal" in="SourceGraphic" in2="effect_dropShadow_1" result="shape"/>
		</filter>
		<filter id="filter_11_1319_dd" x="79.780029" y="59.780029" width="50.660034" height="52.219971" filterUnits="userSpaceOnUse" color-interpolation-filters="sRGB">
			<feFlood flood-opacity="0" result="BackgroundImageFix"/>
			<feColorMatrix in="SourceAlpha" type="matrix" values="0 0 0 0 0 0 0 0 0 0 0 0 0 0 0 0 0 0 127 0" result="hardAlpha"/>
			<feOffset dx="0" dy="4"/>
			<feGaussianBlur stdDeviation="3"/>
			<feComposite in2="hardAlpha" operator="out" k2="-1" k3="1"/>
			<feColorMatrix type="matrix" values="0 0 0 0 0 0 0 0 0 0 0 0 0 0 0 0 0 0 0.25 0"/>
			<feBlend mode="normal" in2="BackgroundImageFix" result="effect_dropShadow_1"/>
			<feBlend mode="normal" in="SourceGraphic" in2="effect_dropShadow_1" result="shape"/>
		</filter>
		<filter id="filter_11_1305_dd" x="13.560547" y="130.659180" width="57.019043" height="18.909668" filterUnits="userSpaceOnUse" color-interpolation-filters="sRGB">
			<feFlood flood-opacity="0" result="BackgroundImageFix"/>
			<feColorMatrix in="SourceAlpha" type="matrix" values="0 0 0 0 0 0 0 0 0 0 0 0 0 0 0 0 0 0 127 0" result="hardAlpha"/>
			<feOffset dx="0" dy="5"/>
			<feGaussianBlur stdDeviation="0.333333"/>
			<feComposite in2="hardAlpha" operator="out" k2="-1" k3="1"/>
			<feColorMatrix type="matrix" values="0 0 0 0 0 0 0 0 0 0 0 0 0 0 0 0 0 0 0.25 0"/>
			<feBlend mode="normal" in2="BackgroundImageFix" result="effect_dropShadow_1"/>
			<feBlend mode="normal" in="SourceGraphic" in2="effect_dropShadow_1" result="shape"/>
		</filter>
		<filter id="filter_11_384_dd" x="30.890015" y="32.369995" width="59.000000" height="59.000000" filterUnits="userSpaceOnUse" color-interpolation-filters="sRGB">
			<feFlood flood-opacity="0" result="BackgroundImageFix"/>
			<feColorMatrix in="SourceAlpha" type="matrix" values="0 0 0 0 0 0 0 0 0 0 0 0 0 0 0 0 0 0 127 0" result="hardAlpha"/>
			<feOffset dx="0" dy="4"/>
			<feGaussianBlur stdDeviation="1.5"/>
			<feComposite in2="hardAlpha" operator="out" k2="-1" k3="1"/>
			<feColorMatrix type="matrix" values="0 0 0 0 0 0 0 0 0 0 0 0 0 0 0 0 0 0 0.25 0"/>
			<feBlend mode="normal" in2="BackgroundImageFix" result="effect_dropShadow_1"/>
			<feBlend mode="normal" in="SourceGraphic" in2="effect_dropShadow_1" result="shape"/>
		</filter>
		<clipPath id="clip11_1313">
			<rect id="adobe illustrator" width="24.000000" height="23.076923" transform="translate(59.000000 57.000000)" fill="white"/>
		</clipPath>
		<clipPath id="clip11_1310">
			<rect id="adobe photoshop" width="24.000000" height="23.000000" transform="translate(39.000000 37.000000)" fill="white"/>
		</clipPath>
		<clipPath id="clip11_369">
			<rect id="平面设计" width="161.000000" height="195.000000" fill="white"/>
		</clipPath>
		<linearGradient id="paint_linear_11_372_0" x1="70.131691" y1="173.760086" x2="71.180519" y2="27.947527" gradientUnits="userSpaceOnUse">
			<stop stop-color="#E3E9EF"/>
			<stop offset="1.000000" stop-color="#F6F9FC"/>
		</linearGradient>
		<linearGradient id="paint_linear_11_374_0" x1="66.577332" y1="8.869995" x2="66.577332" y2="157.813034" gradientUnits="userSpaceOnUse">
			<stop stop-color="#E3E9EF"/>
			<stop offset="1.000000" stop-color="#F6F9FC"/>
		</linearGradient>
		<linearGradient id="paint_linear_11_376_0" x1="91.662155" y1="19.869980" x2="92.652328" y2="150.765976" gradientUnits="userSpaceOnUse">
			<stop stop-color="#E3E9EF"/>
			<stop offset="1.000000" stop-color="#F6F9FC"/>
		</linearGradient>
		<linearGradient id="paint_linear_11_378_0" x1="0.999999" y1="136.480011" x2="83.000008" y2="135.296021" gradientUnits="userSpaceOnUse">
			<stop stop-color="#32C5FF"/>
			<stop offset="1.000000" stop-color="#0091FF"/>
		</linearGradient>
		<linearGradient id="paint_linear_11_1316_0" x1="118.649933" y1="56.999992" x2="115.299942" y2="105.549995" gradientUnits="userSpaceOnUse">
			<stop stop-color="#E3E9EF"/>
			<stop offset="1.000000" stop-color="#F6F9FC"/>
		</linearGradient>
		<linearGradient id="paint_linear_11_1322_0" x1="96.560059" y1="85.559387" x2="121.440063" y2="84.638458" gradientUnits="userSpaceOnUse">
			<stop stop-color="#32C5FF"/>
			<stop offset="1.000000" stop-color="#0091FF"/>
		</linearGradient>
		<linearGradient id="paint_linear_11_1324_0" x1="92.439941" y1="73.018799" x2="100.219940" y2="72.730942" gradientUnits="userSpaceOnUse">
			<stop stop-color="#32C5FF"/>
			<stop offset="1.000000" stop-color="#0091FF"/>
		</linearGradient>
		<linearGradient id="paint_linear_11_393_0" x1="62.947815" y1="103.999985" x2="63.227707" y2="115.651985" gradientUnits="userSpaceOnUse">
			<stop stop-color="#E3E9EF"/>
			<stop offset="1.000000" stop-color="#F6F9FC"/>
		</linearGradient>
		<linearGradient id="paint_linear_11_395_0" x1="50.494316" y1="107.000000" x2="53.689735" y2="113.000000" gradientUnits="userSpaceOnUse">
			<stop stop-color="#32C5FF"/>
			<stop offset="0.236000" stop-color="#30C3FF"/>
			<stop offset="1.000000" stop-color="#0091FF"/>
		</linearGradient>
		<linearGradient id="paint_linear_11_397_0" x1="62.037495" y1="87.999969" x2="62.117409" y2="99.999969" gradientUnits="userSpaceOnUse">
			<stop stop-color="#E3E9EF"/>
			<stop offset="1.000000" stop-color="#F6F9FC"/>
		</linearGradient>
		<linearGradient id="paint_linear_11_398_0" x1="47.500000" y1="91.000000" x2="49.862999" y2="97.000000" gradientUnits="userSpaceOnUse">
			<stop stop-color="#32C5FF"/>
			<stop offset="0.236000" stop-color="#30C3FF"/>
			<stop offset="1.000000" stop-color="#0091FF"/>
		</linearGradient>
		<linearGradient id="paint_linear_11_384_0" x1="74.039955" y1="32.869991" x2="70.689964" y2="81.419998" gradientUnits="userSpaceOnUse">
			<stop stop-color="#E3E9EF"/>
			<stop offset="1.000000" stop-color="#F6F9FC"/>
		</linearGradient>
	</defs>
	<g clip-path="url(#clip11_369)">
		<g filter="url(#filter_11_372_dd)">
			<path id="路径_20695-2" d="M29.58 9L100.1 9L102.97 9.28998L105.68 10.11L108.19 11.46L110.41 13.29L141.97 44.98L143.8 47.22L145.13 49.74L145.96 52.46L146.24 55.34L146.24 159.11L146 161.78L145.34 164.22L144.26 166.49L142.81 168.54L141.08 170.29L139.03 171.74L136.77 172.83L134.33 173.5L131.66 173.76L29.58 173.76L26.92 173.5L24.47 172.83L22.21 171.74L20.16 170.29L18.4301 168.54L16.98 166.49L15.9 164.22L15.24 161.78L15 159.11L15 23.64L15.24 20.98L15.9 18.53L16.98 16.26L18.4301 14.21L20.16 12.47L22.21 11.01L24.47 9.91998L26.92 9.25L29.58 9Z" fill-rule="nonzero" fill="url(#paint_linear_11_372_0)"/>
		</g>
		<path id="路径_20696" d="M141.97 44.86L110.41 13.16L108.19 11.33L105.68 9.98999L102.97 9.15997L100.1 8.87L29.58 8.87L26.92 9.12L24.47 9.79999L22.21 10.88L20.16 12.34L18.4301 14.08L16.98 16.14L15.9 18.4L15.24 20.85L15 23.52L15 158.98L15.24 161.65L15.9 164.1L16.98 166.36L18.4301 168.42L20.16 170.16L22.21 171.62L24.47 172.7L26.92 173.37L29.58 173.63L131.66 173.63L134.32 173.37L136.77 172.7L139.03 171.62L141.08 170.16L142.81 168.42L144.26 166.36L145.34 164.1L146 161.65L146.24 158.98L146.24 55.21L145.96 52.34L145.13 49.61L143.79 47.1L141.97 44.86ZM142.24 158.99L142.06 160.92L141.58 162.7L140.8 164.34L139.75 165.84L138.49 167.1L137.01 168.16L135.37 168.95L133.59 169.44L131.66 169.63L29.58 169.63L27.65 169.44L25.87 168.95L24.23 168.16L22.75 167.1L21.49 165.84L20.4399 164.34L19.66 162.7L19.1801 160.92L19 158.99L19 23.52L19.1801 21.58L19.66 19.8L20.4399 18.16L21.49 16.67L22.75 15.4L24.23 14.34L25.87 13.55L27.65 13.06L29.58 12.87L100.1 12.87L102.18 13.08L104.15 13.68L105.96 14.65L107.58 15.98L139.13 47.68L140.46 49.31L141.43 51.14L142.03 53.12L142.24 55.21L142.24 158.99Z" fill-rule="nonzero" fill="url(#paint_linear_11_374_0)"/>
		<path id="路径_20697" d="M135 154.09L134.86 155.85L134.45 157.46L133.77 158.96L132.3 160.93L130.38 162.47L128.9 163.21L127.31 163.68L125.55 163.87L34.45 163.87L32.6899 163.68L31.1 163.21L29.62 162.47L27.7 160.93L26.23 158.96L25.55 157.46L25.14 155.85L25 154.09L25 29.65L25.13 27.89L25.55 26.28L26.23 24.78L27.7 22.81L29.62 21.27L31.1 20.53L32.6899 20.07L34.45 19.87L97.39 19.87L99.23 20.06L101 20.61L102.63 21.52L104.06 22.73L132.23 51.84L133.41 53.33L134.28 55.02L134.82 56.86L135 58.77L135 154.09Z" fill-rule="nonzero" fill="url(#paint_linear_11_376_0)"/>
		<path id="路径_21927" d="M7 121.76L77 121.76L78.63 121.99L80.03 122.57L81.24 123.51L82.1899 124.73L82.77 126.13L83 127.76L83 147.76L82.77 149.39L82.1899 150.78L81.24 152L80.03 152.94L78.63 153.53L77 153.76L7 153.76L5.37 153.53L3.96997 152.94L2.76001 152L1.81006 150.78L1.22998 149.39L1 147.76L1 127.76L1.22998 126.13L1.81006 124.73L2.76001 123.51L3.96997 122.57L5.37 121.99L7 121.76Z" fill-rule="nonzero" fill="url(#paint_linear_11_378_0)"/>
		<g filter="url(#filter_11_1316_dd)">
			<path id="矩形_4948-2" d="M83 57L127 57L128.18 57.24L129.12 57.88L129.76 58.82L130 60L130 104L129.76 105.18L129.12 106.12L128.18 106.76L127 107L83 107L81.8199 106.76L80.88 106.12L80.24 105.18L80 104L80 60L80.24 58.82L80.88 57.88L81.8199 57.24L83 57Z" fill-rule="nonzero" fill="url(#paint_linear_11_1316_0)"/>
		</g>
		<g filter="url(#filter_11_1319_dd)">
			<path id="路径_21928-2" d="M91.75 64.78L118.47 64.78L119.66 65.05L120.6 65.72L121.23 66.69L121.44 67.89L121.44 95.89L121.23 97.09L120.6 98.0601L119.66 98.73L118.47 99L91.75 99L90.5601 98.73L89.62 98.0601L88.99 97.09L88.78 95.89L88.78 67.89L89 66.69L89.62 65.72L90.5601 65.05L91.75 64.78Z" fill-rule="nonzero" fill="#9DDFF7"/>
		</g>
		<path id="路径_21929" d="M121.44 74.11L118.02 74.35L114.81 75L111.75 76.06L108.87 77.52L106.24 79.29L103.84 81.4L101.74 83.79L99.9601 86.42L98.51 89.31L97.4501 92.36L96.79 95.58L96.5601 99L118.33 99L119.55 98.75L120.53 98.08L121.19 97.1L121.44 95.88L121.44 74.11Z" fill-rule="evenodd" fill="url(#paint_linear_11_1322_0)"/>
		<path id="矩形_4949" d="M95.4399 69.44L97.22 69.44L98.3999 69.68L99.34 70.32L99.98 71.27L100.22 72.44L100.22 74.22L99.98 75.4L99.34 76.34L98.3999 76.98L97.22 77.22L95.4399 77.22L94.2699 76.98L93.3199 76.34L92.6799 75.4L92.4399 74.22L92.4399 72.44L92.6799 71.27L93.3199 70.32L94.2699 69.68L95.4399 69.44Z" fill-rule="nonzero" fill="url(#paint_linear_11_1324_0)"/>
		<path id="路径_21931" d="M35.8989 104L74.0831 104L74.4382 104.16L74.7213 104.58L74.9102 105.21L74.9821 106L74.9821 114L74.9102 114.78L74.7213 115.41L74.4382 115.84L74.0831 116L35.8989 116L35.5483 115.84L35.2651 115.41L35.0719 114.78L35 114L35 106L35.0719 105.21L35.2651 104.58L35.5483 104.16L35.8989 104Z" fill-rule="nonzero" fill="url(#paint_linear_11_393_0)"/>
		<path id="矩形_4955" d="M61.9886 110L61.9205 111.17L61.7416 112.12L61.4718 112.76L61.1368 113L39.8518 113L39.5168 112.76L39.2499 112.12L39.0681 111.17L39 110L39.0681 108.82L39.2499 107.88L39.5168 107.24L39.8518 107L61.1368 107L61.4718 107.24L61.7416 107.88L61.9205 108.82L61.9886 110Z" fill-rule="nonzero" fill="url(#paint_linear_11_395_0)"/>
		<path id="路径_21930" d="M36.1594 88L73.771 88L74.229 88.16L74.5942 88.58L74.8435 89.21L74.9304 90L74.9304 98L74.8435 98.78L74.5942 99.41L74.229 99.84L73.771 100L36.1594 100L35.7073 99.84L35.342 99.41L35.0928 98.78L35 98L35 90L35.0928 89.21L35.342 88.58L35.7073 88.16L36.1594 88Z" fill-rule="nonzero" fill="url(#paint_linear_11_397_0)"/>
		<path id="矩形_4957" d="M56 94L55.933 95.17L55.7543 96.12L55.4891 96.76L55.1625 97L39.8375 97L39.5082 96.76L39.2457 96.12L39.067 95.17L39 94L39.067 92.82L39.2457 91.88L39.5082 91.24L39.8375 91L55.1625 91L55.4891 91.24L55.7543 91.88L55.933 92.82L56 94Z" fill-rule="nonzero" fill="url(#paint_linear_11_398_0)"/>
		<g filter="url(#filter_11_1305_dd)">
			<path id="平面设计" d="M61.1953 137.099L64.5244 137.099L64.5244 143.542L66.3872 143.542L66.3872 137.099L69.5796 137.099L69.5796 135.239L66.3872 135.239L66.3872 130.659L64.5107 130.659L64.5107 135.239L61.1953 135.239L61.1953 137.099ZM45.3599 130.799L46.3271 133.838L44.4233 133.838L43.4561 130.799L45.3599 130.799ZM60.3271 133.838L59.3599 130.799L57.4561 130.799L58.4233 133.838L60.3271 133.838ZM20.0908 137.225L14.5605 137.225L14.5605 138.989L20.0908 138.989L20.0908 143.401L21.9092 143.401L21.9092 138.989L27.4395 138.989L27.4395 137.225L21.9092 137.225L21.9092 132.802L27.1455 132.802L27.1455 131.039L14.8545 131.039L14.8545 132.802L20.0908 132.802L20.0908 137.225ZM47.4038 135.995C47.8322 135.5 48.1182 134.948 48.2617 134.337C48.4076 133.724 48.4805 133.003 48.4805 132.173L48.4805 131.039L54.2363 131.039L54.2363 134.104L55.4121 134.104L55.4121 135.783L52.5547 135.783L52.5547 132.748L50.1484 132.748C50.1302 133.408 50.0596 133.999 49.9365 134.518C49.8158 135.035 49.6061 135.528 49.3076 135.995L47.4038 135.995ZM33.978 132.843L33.7251 133.964L29.1211 133.964L29.1211 143.189L40.8789 143.189L40.8789 133.964L35.6016 133.964L35.8545 132.843L41.4121 132.843L41.4121 131.052L28.5879 131.052L28.5879 132.843L33.978 132.843ZM18.4229 136.596L17.541 133.458L15.6816 133.458L16.5635 136.596L18.4229 136.596ZM26.3184 133.458L24.459 133.458L23.5771 136.596L25.4365 136.596L26.3184 133.458ZM42.5605 134.792L46.1152 134.792L46.1152 140.585L47.1509 140.195L47.1509 142.28L44.2388 143.401L44.2388 136.651L42.5605 136.651L42.5605 134.792ZM59.835 134.792L56.4888 134.792L56.4888 136.651L57.9585 136.651L57.9585 143.401L61.5713 142.321L61.5713 140.236L59.835 140.752L59.835 134.792ZM32.1289 135.755L32.1289 141.426L30.9121 141.426L30.9121 135.755L32.1289 135.755ZM36.1074 135.755L36.1074 136.695L33.8926 136.695L33.8926 135.755L36.1074 135.755ZM39.0879 135.755L39.0879 141.426L37.8711 141.426L37.8711 135.755L39.0879 135.755ZM47.4585 141.774C48.4406 141.43 49.3236 141.016 50.1074 140.53C49.0524 139.439 48.2914 138.02 47.8242 136.275L55.0771 136.275C54.9655 137.086 54.7103 137.859 54.3115 138.592C53.915 139.324 53.4 139.997 52.7666 140.612C53.1586 140.847 53.5288 141.042 53.8774 141.197C54.2284 141.349 54.7023 141.542 55.2993 141.774L55.2993 143.569Q52.9478 142.714 51.4644 141.692Q49.7007 142.937 47.4585 143.569L47.4585 141.774ZM50.0903 137.772C50.4366 138.462 50.8765 139.059 51.4097 139.563C52.0249 139.023 52.5092 138.426 52.8623 137.772L50.0903 137.772ZM36.1074 138.093L36.1074 139.074L33.8926 139.074L33.8926 138.093L36.1074 138.093ZM36.1074 140.476L36.1074 141.426L33.8926 141.426L33.8926 140.476L36.1074 140.476Z" fill-rule="evenodd" fill="#FFFFFF"/>
		</g>
		<g filter="url(#filter_11_384_dd)">
			<path id="矩形_4948-2" d="M38.39 32.87L82.39 32.87L83.5701 33.11L84.51 33.75L85.15 34.69L85.39 35.87L85.39 79.87L85.15 81.05L84.51 81.99L83.5701 82.63L82.39 82.87L38.39 82.87L37.21 82.63L36.27 81.99L35.63 81.05L35.39 79.87L35.39 35.87L35.63 34.69L36.27 33.75L37.21 33.11L38.39 32.87Z" fill-rule="nonzero" fill="url(#paint_linear_11_384_0)"/>
		</g>
		<g clip-path="url(#clip11_1313)">
			<path id="path" d="M64.1554 58.3972L77.787 58.3972C80.2788 58.3972 81.5247 59.6251 81.5247 62.081L81.5247 74.9959C81.5247 77.4517 80.2788 78.6797 77.787 78.6797L64.1554 78.6797C61.6636 78.6797 60.4177 77.4517 60.4177 74.9959L60.4177 62.081C60.4177 59.6251 61.6636 58.3972 64.1554 58.3972Z" fill-rule="nonzero" fill="#330000"/>
			<path id="path" d="M70.6458 70.5691L67.3751 70.5691L66.7095 72.6066C66.7002 72.6449 66.6796 72.6759 66.6475 72.6995C66.6155 72.7232 66.5796 72.7341 66.5396 72.7322L64.8829 72.7322C64.7886 72.7322 64.7555 72.681 64.7838 72.5786L67.6157 64.5405C67.644 64.4568 67.6724 64.3615 67.7007 64.2545C67.7378 64.0679 67.7567 63.8795 67.7573 63.6894C67.7554 63.6759 67.7565 63.6627 67.7609 63.6498C67.7653 63.6369 67.7723 63.6256 67.7821 63.616C67.7919 63.6064 67.8032 63.5994 67.8163 63.5952C67.8295 63.5908 67.8428 63.5897 67.8564 63.5916L70.1077 63.5916C70.1737 63.5916 70.2114 63.6149 70.2209 63.6614L73.4352 72.5926C73.4635 72.6857 73.4352 72.7322 73.3502 72.7321L71.5095 72.7321C71.4768 72.7357 71.4469 72.7282 71.42 72.7096C71.3931 72.691 71.3757 72.666 71.3679 72.6345L70.6458 70.5691ZM67.8848 68.8108L70.1218 68.8108C70.0652 68.6248 69.9991 68.4155 69.9237 68.1828C69.848 67.9504 69.7678 67.7015 69.683 67.4363L69.4281 66.6408C69.3431 66.3756 69.2653 66.1198 69.1945 65.8733C69.1237 65.6269 69.0599 65.4012 69.0034 65.1964L68.9891 65.1964C68.9094 65.5735 68.8103 65.9457 68.6919 66.3128C68.5596 66.7315 68.425 67.1594 68.2882 67.5967C68.1514 68.0341 68.0168 68.4388 67.8848 68.8108ZM75.3464 65.0709C75.2004 65.0766 75.0596 65.0527 74.9238 64.9993C74.7881 64.9457 74.6694 64.8672 74.5677 64.7638C74.4664 64.656 74.39 64.5332 74.3385 64.3953C74.287 64.2575 74.2643 64.1152 74.2705 63.9684C74.2653 63.8229 74.2904 63.6826 74.3459 63.5477C74.4014 63.4127 74.4824 63.2948 74.589 63.1939C74.6943 63.0942 74.8152 63.0184 74.9514 62.9663C75.0876 62.9143 75.2288 62.8901 75.3748 62.8939C75.7147 62.8939 75.9813 62.9939 76.1748 63.1939C76.2734 63.2989 76.3479 63.4185 76.3982 63.5527C76.4485 63.6869 76.4708 63.8254 76.4651 63.9684C76.4711 64.1158 76.4476 64.2585 76.3948 64.3965C76.3419 64.5346 76.2639 64.657 76.1606 64.7638C76.0526 64.8688 75.9279 64.9479 75.7861 65.0013C75.6445 65.0547 75.4979 65.0779 75.3464 65.0709ZM74.3695 72.5927L74.3695 65.922C74.3695 65.8383 74.4071 65.7964 74.4828 65.7964L76.2244 65.7964C76.2998 65.7964 76.3375 65.8383 76.3376 65.9221L76.3376 72.5925C76.3376 72.6857 76.2999 72.7322 76.2244 72.7321L74.4969 72.7321C74.412 72.7321 74.3695 72.6857 74.3695 72.5927Z" fill-rule="nonzero" fill="#FF9A00"/>
		</g>
		<g clip-path="url(#clip11_1310)">
			<path id="path" d="M44.1554 38.3926L57.787 38.3926C60.2788 38.3926 61.5247 39.6164 61.5247 42.0641L61.5247 54.9359C61.5247 57.3836 60.2788 58.6074 57.787 58.6074L44.1554 58.6074C41.6636 58.6074 40.4177 57.3836 40.4177 54.9359L40.4177 42.0641C40.4177 39.6164 41.6636 38.3926 44.1554 38.3926Z" fill-rule="nonzero" fill="#001E36"/>
			<path id="path" d="M45.1704 52.5685L45.1704 43.6809C45.1704 43.6161 45.1987 43.5836 45.2554 43.5836C45.4062 43.5836 45.5439 43.5814 45.7517 43.5767C45.9592 43.572 46.1835 43.5674 46.4242 43.5627C46.665 43.5582 46.9199 43.5535 47.189 43.5488C47.4579 43.5443 47.7246 43.5419 47.9889 43.5419C48.7062 43.5419 49.3103 43.63 49.8013 43.8061C50.2498 43.9551 50.6439 44.1916 50.9836 44.5154C51.2714 44.796 51.4861 45.1228 51.6278 45.496C51.7614 45.8577 51.8274 46.2309 51.826 46.6156C51.826 47.3576 51.6514 47.9695 51.3021 48.4515C51.1263 48.6935 50.9177 48.9041 50.6761 49.0833C50.4347 49.2624 50.1713 49.4019 49.8862 49.5017C49.2915 49.7197 48.6307 49.7936 47.9039 49.7936C47.6962 49.7936 47.5499 49.7913 47.465 49.7867C47.38 49.782 47.2526 49.7797 47.0826 49.7796L47.0826 52.5546C47.0852 52.5718 47.0837 52.5887 47.0781 52.6052C47.0725 52.6218 47.0635 52.6362 47.0509 52.6486C47.0383 52.6608 47.0237 52.6698 47.0068 52.6753C46.99 52.6808 46.9728 52.6823 46.9553 52.6798L45.2695 52.6798C45.2034 52.6798 45.1704 52.6428 45.1704 52.5685ZM47.0826 45.2527L47.0826 48.1514C47.2052 48.1608 47.3185 48.1654 47.4225 48.1653L47.8898 48.1653C48.2357 48.1642 48.5731 48.1113 48.9022 48.0065C49.1886 47.923 49.4293 47.77 49.6243 47.5476C49.8083 47.3344 49.9004 47.0377 49.9004 46.6574C49.908 46.3828 49.8396 46.1277 49.6951 45.8925C49.6206 45.7811 49.5309 45.6832 49.4258 45.599C49.3207 45.5148 49.2052 45.448 49.0791 45.3987C48.7466 45.2718 48.4021 45.2138 48.0455 45.2249C47.819 45.2249 47.6184 45.2272 47.4438 45.2318C47.269 45.2366 47.1487 45.2436 47.0826 45.2527ZM57.3007 47.6243C57.0333 47.4894 56.7524 47.392 56.4581 47.3322C56.1343 47.2592 55.8063 47.2222 55.4741 47.2209C55.2941 47.2161 55.1171 47.237 54.9432 47.2835C54.8296 47.3083 54.7374 47.3663 54.667 47.4574C54.6199 47.5294 54.5963 47.6082 54.5962 47.6938C54.5989 47.7775 54.6272 47.8516 54.6812 47.9164C54.7648 48.0123 54.8638 48.0888 54.9785 48.1458C55.1805 48.2527 55.3882 48.3477 55.6016 48.4309C56.0785 48.5878 56.5293 48.7987 56.9537 49.0638C57.2463 49.2452 57.4777 49.484 57.6476 49.7801C57.7904 50.0603 57.8588 50.357 57.8529 50.6702C57.8571 50.874 57.8302 51.0738 57.7722 51.2695C57.7144 51.4652 57.6279 51.6479 57.5131 51.8177C57.3901 51.99 57.2449 52.1418 57.0775 52.2731C56.91 52.4045 56.7272 52.5099 56.5289 52.5896C56.0992 52.775 55.5684 52.8677 54.936 52.8678C54.5333 52.8718 54.1344 52.8347 53.7396 52.7565C53.4281 52.7004 53.1284 52.6077 52.8405 52.4783C52.809 52.4623 52.7842 52.4392 52.7662 52.4091C52.7483 52.3789 52.74 52.3464 52.7413 52.3115L52.7413 50.8093C52.7377 50.7769 52.7494 50.7513 52.7769 50.7328C52.8044 50.7175 52.8303 50.7198 52.8546 50.7397C53.1954 50.9371 53.559 51.0786 53.9449 51.1639C54.2842 51.2475 54.6288 51.2916 54.9785 51.2961C55.3088 51.2961 55.5519 51.2544 55.7078 51.1709C55.7429 51.155 55.775 51.1346 55.8042 51.1097C55.8334 51.0847 55.8583 51.0562 55.879 51.0241C55.8998 50.992 55.9154 50.9577 55.926 50.9211C55.9366 50.8846 55.9418 50.8474 55.9414 50.8093C55.9414 50.689 55.8706 50.5731 55.729 50.4616C55.5874 50.3503 55.2994 50.2159 54.8652 50.0582C54.4186 49.9055 54.0009 49.6969 53.6122 49.4324C53.3315 49.2407 53.1097 48.9973 52.9467 48.7021C52.8054 48.4241 52.7369 48.1297 52.7413 47.819C52.741 47.635 52.766 47.4544 52.8165 47.2772C52.8671 47.1 52.941 46.9329 53.0387 46.7759C53.1499 46.6029 53.2839 46.449 53.4406 46.3141C53.5972 46.1792 53.77 46.0689 53.9591 45.9831C54.3744 45.7792 54.8936 45.6772 55.5166 45.6771C55.8821 45.6742 56.2455 45.6997 56.6068 45.7535C56.8694 45.7863 57.1223 45.8535 57.3658 45.9553C57.4071 45.9669 57.4354 45.9924 57.4509 46.0317C57.4604 46.0659 57.4652 46.1006 57.465 46.1361L57.465 47.5408C57.4672 47.5766 57.453 47.6044 57.4226 47.6243C57.382 47.6442 57.3413 47.6442 57.3007 47.6243Z" fill-rule="nonzero" fill="#31A8FF"/>
		</g>
	</g>
</svg>
