<svg width="161.000000" height="195.000000" viewBox="0 0 161 195" fill="none" xmlns="http://www.w3.org/2000/svg" xmlns:xlink="http://www.w3.org/1999/xlink">
	<desc>
			Created with Pixso.
	</desc>
	<defs>
		<filter id="filter_11_805_dd" x="0.000000" y="-2.000000" width="161.239990" height="194.760010" filterUnits="userSpaceOnUse" color-interpolation-filters="sRGB">
			<feFlood flood-opacity="0" result="BackgroundImageFix"/>
			<feColorMatrix in="SourceAlpha" type="matrix" values="0 0 0 0 0 0 0 0 0 0 0 0 0 0 0 0 0 0 127 0" result="hardAlpha"/>
			<feOffset dx="0" dy="4"/>
			<feGaussianBlur stdDeviation="5"/>
			<feComposite in2="hardAlpha" operator="out" k2="-1" k3="1"/>
			<feColorMatrix type="matrix" values="0 0 0 0 0 0 0 0 0 0 0 0 0 0 0 0 0 0 0.25 0"/>
			<feBlend mode="normal" in2="BackgroundImageFix" result="effect_dropShadow_1"/>
			<feBlend mode="normal" in="SourceGraphic" in2="effect_dropShadow_1" result="shape"/>
		</filter>
		<filter id="filter_11_828_dd" x="32.500000" y="84.929993" width="24.000000" height="24.000000" filterUnits="userSpaceOnUse" color-interpolation-filters="sRGB">
			<feFlood flood-opacity="0" result="BackgroundImageFix"/>
			<feColorMatrix in="SourceAlpha" type="matrix" values="0 0 0 0 0 0 0 0 0 0 0 0 0 0 0 0 0 0 127 0" result="hardAlpha"/>
			<feOffset dx="0" dy="4"/>
			<feGaussianBlur stdDeviation="1.5"/>
			<feComposite in2="hardAlpha" operator="out" k2="-1" k3="1"/>
			<feColorMatrix type="matrix" values="0 0 0 0 0 0 0 0 0 0 0 0 0 0 0 0 0 0 0.25 0"/>
			<feBlend mode="normal" in2="BackgroundImageFix" result="effect_dropShadow_1"/>
			<feBlend mode="normal" in="SourceGraphic" in2="effect_dropShadow_1" result="shape"/>
		</filter>
		<filter id="filter_11_833_dd" x="57.500000" y="84.929993" width="24.000000" height="24.000000" filterUnits="userSpaceOnUse" color-interpolation-filters="sRGB">
			<feFlood flood-opacity="0" result="BackgroundImageFix"/>
			<feColorMatrix in="SourceAlpha" type="matrix" values="0 0 0 0 0 0 0 0 0 0 0 0 0 0 0 0 0 0 127 0" result="hardAlpha"/>
			<feOffset dx="0" dy="4"/>
			<feGaussianBlur stdDeviation="1.5"/>
			<feComposite in2="hardAlpha" operator="out" k2="-1" k3="1"/>
			<feColorMatrix type="matrix" values="0 0 0 0 0 0 0 0 0 0 0 0 0 0 0 0 0 0 0.25 0"/>
			<feBlend mode="normal" in2="BackgroundImageFix" result="effect_dropShadow_1"/>
			<feBlend mode="normal" in="SourceGraphic" in2="effect_dropShadow_1" result="shape"/>
		</filter>
		<filter id="filter_11_838_dd" x="82.500000" y="84.929993" width="24.000000" height="24.000000" filterUnits="userSpaceOnUse" color-interpolation-filters="sRGB">
			<feFlood flood-opacity="0" result="BackgroundImageFix"/>
			<feColorMatrix in="SourceAlpha" type="matrix" values="0 0 0 0 0 0 0 0 0 0 0 0 0 0 0 0 0 0 127 0" result="hardAlpha"/>
			<feOffset dx="0" dy="4"/>
			<feGaussianBlur stdDeviation="1.5"/>
			<feComposite in2="hardAlpha" operator="out" k2="-1" k3="1"/>
			<feColorMatrix type="matrix" values="0 0 0 0 0 0 0 0 0 0 0 0 0 0 0 0 0 0 0.25 0"/>
			<feBlend mode="normal" in2="BackgroundImageFix" result="effect_dropShadow_1"/>
			<feBlend mode="normal" in="SourceGraphic" in2="effect_dropShadow_1" result="shape"/>
		</filter>
		<filter id="filter_11_1309_dd" x="24.497559" y="130.659180" width="36.162354" height="18.742188" filterUnits="userSpaceOnUse" color-interpolation-filters="sRGB">
			<feFlood flood-opacity="0" result="BackgroundImageFix"/>
			<feColorMatrix in="SourceAlpha" type="matrix" values="0 0 0 0 0 0 0 0 0 0 0 0 0 0 0 0 0 0 127 0" result="hardAlpha"/>
			<feOffset dx="0" dy="5"/>
			<feGaussianBlur stdDeviation="0.333333"/>
			<feComposite in2="hardAlpha" operator="out" k2="-1" k3="1"/>
			<feColorMatrix type="matrix" values="0 0 0 0 0 0 0 0 0 0 0 0 0 0 0 0 0 0 0.25 0"/>
			<feBlend mode="normal" in2="BackgroundImageFix" result="effect_dropShadow_1"/>
			<feBlend mode="normal" in="SourceGraphic" in2="effect_dropShadow_1" result="shape"/>
		</filter>
		<clipPath id="clip11_802">
			<rect id="生活" width="161.000000" height="195.000000" fill="white"/>
		</clipPath>
		<linearGradient id="paint_linear_11_805_0" x1="70.131691" y1="173.760086" x2="71.180519" y2="27.947527" gradientUnits="userSpaceOnUse">
			<stop stop-color="#E3E9EF"/>
			<stop offset="1.000000" stop-color="#F6F9FC"/>
		</linearGradient>
		<linearGradient id="paint_linear_11_807_0" x1="66.577332" y1="8.869995" x2="66.577332" y2="157.813034" gradientUnits="userSpaceOnUse">
			<stop stop-color="#E3E9EF"/>
			<stop offset="1.000000" stop-color="#F6F9FC"/>
		</linearGradient>
		<linearGradient id="paint_linear_11_809_0" x1="91.662155" y1="19.869980" x2="92.652328" y2="150.765976" gradientUnits="userSpaceOnUse">
			<stop stop-color="#E3E9EF"/>
			<stop offset="1.000000" stop-color="#F6F9FC"/>
		</linearGradient>
		<linearGradient id="paint_linear_11_811_0" x1="0.999998" y1="138.751984" x2="83.000015" y2="138.847992" gradientUnits="userSpaceOnUse">
			<stop stop-color="#36BFFF"/>
			<stop offset="1.000000" stop-color="#1781C6"/>
		</linearGradient>
		<linearGradient id="paint_linear_11_828_0" x1="50.829998" y1="98.779991" x2="38.875000" y2="86.554993" gradientUnits="userSpaceOnUse">
			<stop stop-color="#E3E9EF"/>
			<stop offset="1.000000" stop-color="#F6F9FC"/>
		</linearGradient>
		<linearGradient id="paint_linear_11_829_0" x1="41.596001" y1="90.225998" x2="45.827999" y2="96.729996" gradientUnits="userSpaceOnUse">
			<stop stop-color="#E3E9EF"/>
			<stop offset="1.000000" stop-color="#F6F9FC"/>
		</linearGradient>
		<linearGradient id="paint_linear_11_833_0" x1="75.830002" y1="98.779991" x2="63.875000" y2="86.554993" gradientUnits="userSpaceOnUse">
			<stop stop-color="#E3E9EF"/>
			<stop offset="1.000000" stop-color="#F6F9FC"/>
		</linearGradient>
		<linearGradient id="paint_linear_11_834_0" x1="66.596001" y1="90.225998" x2="70.827995" y2="96.729996" gradientUnits="userSpaceOnUse">
			<stop stop-color="#E3E9EF"/>
			<stop offset="1.000000" stop-color="#F6F9FC"/>
		</linearGradient>
		<linearGradient id="paint_linear_11_838_0" x1="100.830002" y1="98.779991" x2="88.875000" y2="86.554993" gradientUnits="userSpaceOnUse">
			<stop stop-color="#E3E9EF"/>
			<stop offset="1.000000" stop-color="#F6F9FC"/>
		</linearGradient>
		<linearGradient id="paint_linear_11_839_0" x1="91.596001" y1="90.225998" x2="95.828003" y2="96.729996" gradientUnits="userSpaceOnUse">
			<stop stop-color="#E3E9EF"/>
			<stop offset="1.000000" stop-color="#F6F9FC"/>
		</linearGradient>
		<linearGradient id="paint_linear_11_841_0" x1="113.973007" y1="106.429955" x2="114.059013" y2="113.449959" gradientUnits="userSpaceOnUse">
			<stop stop-color="#E3E9EF"/>
			<stop offset="1.000000" stop-color="#F6F9FC"/>
		</linearGradient>
		<linearGradient id="paint_linear_11_1283_0" x1="113.973007" y1="68.999962" x2="114.059013" y2="76.019966" gradientUnits="userSpaceOnUse">
			<stop stop-color="#E3E9EF"/>
			<stop offset="1.000000" stop-color="#F6F9FC"/>
		</linearGradient>
		<linearGradient id="paint_linear_11_1289_0" x1="113.973007" y1="49.999962" x2="114.059013" y2="57.019962" gradientUnits="userSpaceOnUse">
			<stop stop-color="#E3E9EF"/>
			<stop offset="1.000000" stop-color="#F6F9FC"/>
		</linearGradient>
		<linearGradient id="paint_linear_11_1295_0" x1="91.605331" y1="30.999910" x2="91.666359" y2="38.019909" gradientUnits="userSpaceOnUse">
			<stop stop-color="#E3E9EF"/>
			<stop offset="1.000000" stop-color="#F6F9FC"/>
		</linearGradient>
		<linearGradient id="paint_linear_11_843_0" x1="95.006073" y1="114.430000" x2="95.662079" y2="108.430000" gradientUnits="userSpaceOnUse">
			<stop stop-color="#E3E9EF"/>
			<stop offset="1.000000" stop-color="#F6F9FC"/>
		</linearGradient>
		<linearGradient id="paint_linear_11_1285_0" x1="95.006073" y1="77.000008" x2="95.662079" y2="71.000008" gradientUnits="userSpaceOnUse">
			<stop stop-color="#E3E9EF"/>
			<stop offset="1.000000" stop-color="#F6F9FC"/>
		</linearGradient>
		<linearGradient id="paint_linear_11_1291_0" x1="95.006073" y1="58.000008" x2="95.662079" y2="52.000008" gradientUnits="userSpaceOnUse">
			<stop stop-color="#E3E9EF"/>
			<stop offset="1.000000" stop-color="#F6F9FC"/>
		</linearGradient>
		<linearGradient id="paint_linear_11_1297_0" x1="76.564957" y1="39.000000" x2="77.004959" y2="33.000000" gradientUnits="userSpaceOnUse">
			<stop stop-color="#E3E9EF"/>
			<stop offset="1.000000" stop-color="#F6F9FC"/>
		</linearGradient>
		<linearGradient id="paint_linear_11_845_0" x1="39.000000" y1="111.615982" x2="85.000000" y2="111.633987" gradientUnits="userSpaceOnUse">
			<stop stop-color="#36BFFF"/>
			<stop offset="1.000000" stop-color="#1781C6"/>
		</linearGradient>
		<linearGradient id="paint_linear_11_1287_0" x1="39.000004" y1="74.185974" x2="102.000000" y2="74.203979" gradientUnits="userSpaceOnUse">
			<stop stop-color="#36BFFF"/>
			<stop offset="1.000000" stop-color="#1781C6"/>
		</linearGradient>
		<linearGradient id="paint_linear_11_1293_0" x1="39.000000" y1="55.185989" x2="85.000000" y2="55.203995" gradientUnits="userSpaceOnUse">
			<stop stop-color="#36BFFF"/>
			<stop offset="1.000000" stop-color="#1781C6"/>
		</linearGradient>
		<linearGradient id="paint_linear_11_1299_0" x1="39.000000" y1="36.185982" x2="65.000000" y2="36.203987" gradientUnits="userSpaceOnUse">
			<stop stop-color="#36BFFF"/>
			<stop offset="1.000000" stop-color="#1781C6"/>
		</linearGradient>
		<linearGradient id="paint_linear_11_847_0" x1="41.169998" y1="88.984993" x2="51.999996" y2="100.429993" gradientUnits="userSpaceOnUse">
			<stop stop-color="#36BFFF"/>
			<stop offset="1.000000" stop-color="#1781C6"/>
		</linearGradient>
		<linearGradient id="paint_linear_11_849_0" x1="47.099998" y1="96.929993" x2="40.500000" y2="88.929993" gradientUnits="userSpaceOnUse">
			<stop stop-color="#36BFFF"/>
			<stop offset="1.000000" stop-color="#1781C6"/>
		</linearGradient>
	</defs>
	<g clip-path="url(#clip11_802)">
		<g filter="url(#filter_11_805_dd)">
			<path id="路径_21941-2" d="M29.58 9L100.1 9L102.97 9.28998L105.68 10.11L108.19 11.46L110.41 13.29L141.97 44.98L143.8 47.22L145.13 49.74L145.96 52.46L146.24 55.34L146.24 159.11L146 161.78L145.34 164.22L144.26 166.49L142.81 168.54L141.08 170.29L139.03 171.74L136.77 172.83L134.33 173.5L131.66 173.76L29.58 173.76L26.92 173.5L24.47 172.83L22.21 171.74L20.16 170.29L18.4301 168.54L16.98 166.49L15.9 164.22L15.24 161.78L15 159.11L15 23.64L15.24 20.98L15.9 18.53L16.98 16.26L18.4301 14.21L20.16 12.47L22.21 11.01L24.47 9.91998L26.92 9.25L29.58 9Z" fill-rule="nonzero" fill="url(#paint_linear_11_805_0)"/>
		</g>
		<path id="路径_21942" d="M141.97 44.86L110.41 13.16L108.19 11.33L105.68 9.98999L102.97 9.15997L100.1 8.87L29.58 8.87L26.92 9.12L24.47 9.79999L22.21 10.88L20.16 12.34L18.4301 14.08L16.98 16.14L15.9 18.4L15.24 20.85L15 23.52L15 158.98L15.24 161.65L15.9 164.1L16.98 166.36L18.4301 168.42L20.16 170.16L22.21 171.62L24.47 172.7L26.92 173.37L29.58 173.63L131.66 173.63L134.32 173.37L136.77 172.7L139.03 171.62L141.08 170.16L142.81 168.42L144.26 166.36L145.34 164.1L146 161.65L146.24 158.98L146.24 55.21L145.96 52.34L145.13 49.61L143.79 47.1L141.97 44.86ZM142.24 158.99L142.06 160.92L141.58 162.7L140.8 164.34L139.75 165.84L138.49 167.1L137.01 168.16L135.37 168.95L133.59 169.44L131.66 169.63L29.58 169.63L27.65 169.44L25.87 168.95L24.23 168.16L22.75 167.1L21.49 165.84L20.4399 164.34L19.66 162.7L19.1801 160.92L19 158.99L19 23.52L19.1801 21.58L19.66 19.8L20.4399 18.16L21.49 16.67L22.75 15.4L24.23 14.34L25.87 13.55L27.65 13.06L29.58 12.87L100.1 12.87L102.18 13.08L104.15 13.68L105.96 14.65L107.58 15.98L139.13 47.68L140.46 49.31L141.43 51.14L142.03 53.12L142.24 55.21L142.24 158.99Z" fill-rule="nonzero" fill="url(#paint_linear_11_807_0)"/>
		<path id="路径_21943" d="M135 154.09L134.86 155.85L134.45 157.46L133.77 158.96L132.3 160.93L130.38 162.47L128.9 163.21L127.31 163.68L125.55 163.87L34.45 163.87L32.6899 163.68L31.1 163.21L29.62 162.47L27.7 160.93L26.23 158.96L25.55 157.46L25.14 155.85L25 154.09L25 29.65L25.13 27.89L25.55 26.28L26.23 24.78L27.7 22.81L29.62 21.27L31.1 20.53L32.6899 20.07L34.45 19.87L97.39 19.87L99.23 20.06L101 20.61L102.63 21.52L104.06 22.73L132.23 51.84L133.41 53.33L134.28 55.02L134.82 56.86L135 58.77L135 154.09Z" fill-rule="nonzero" fill="url(#paint_linear_11_809_0)"/>
		<path id="路径_21944" d="M7 121.76L77 121.76L78.63 121.99L80.03 122.57L81.24 123.51L82.1899 124.73L82.77 126.13L83 127.76L83 147.76L82.77 149.39L82.1899 150.78L81.24 152L80.03 152.94L78.63 153.53L77 153.76L7 153.76L5.37 153.53L3.96997 152.94L2.76001 152L1.81006 150.78L1.22998 149.39L1 147.76L1 127.76L1.22998 126.13L1.81006 124.73L2.76001 123.51L3.96997 122.57L5.37 121.99L7 121.76Z" fill-rule="nonzero" fill="url(#paint_linear_11_811_0)"/>
		<g filter="url(#filter_11_828_dd)">
			<path id="路径_21924-4" d="M40.92 85.43L48.08 85.43L49.61 85.74L50.85 86.58L51.6899 87.81L52 89.35L52 96.5L51.6899 98.04L50.85 99.28L49.61 100.12L48.08 100.43L40.92 100.43L39.39 100.12L38.15 99.28L37.3101 98.04L37 96.5L37 89.35L37.3101 87.81L38.15 86.58L39.39 85.74L40.92 85.43Z" fill-rule="nonzero" fill="url(#paint_linear_11_828_0)"/>
		</g>
		<path id="路径_21925" d="M44.5 88.93L46.0699 89.25L47.33 90.1L48.1801 91.36L48.5 92.93L48.1801 94.5L47.33 95.76L46.0699 96.61L44.5 96.93L42.9301 96.61L41.67 95.76L40.8199 94.5L40.5 92.93L40.8199 91.36L41.67 90.1L42.9301 89.25L44.5 88.93Z" fill-rule="nonzero" fill="url(#paint_linear_11_829_0)"/>
		<g filter="url(#filter_11_833_dd)">
			<path id="路径_21924-5" d="M65.92 85.43L73.08 85.43L74.61 85.74L75.85 86.58L76.6899 87.81L77 89.35L77 96.5L76.6899 98.04L75.85 99.28L74.61 100.12L73.08 100.43L65.92 100.43L64.39 100.12L63.15 99.28L62.3101 98.04L62 96.5L62 89.35L62.3101 87.81L63.15 86.58L64.39 85.74L65.92 85.43Z" fill-rule="nonzero" fill="url(#paint_linear_11_833_0)"/>
		</g>
		<path id="路径_21925-2" d="M69.5 88.93L71.0699 89.25L72.33 90.1L73.1801 91.36L73.5 92.93L73.1801 94.5L72.33 95.76L71.0699 96.61L69.5 96.93L67.9301 96.61L66.67 95.76L65.8199 94.5L65.5 92.93L65.8199 91.36L66.67 90.1L67.9301 89.25L69.5 88.93Z" fill-rule="nonzero" fill="url(#paint_linear_11_834_0)"/>
		<g filter="url(#filter_11_838_dd)">
			<path id="路径_21924-6" d="M90.92 85.43L98.08 85.43L99.61 85.74L100.85 86.58L101.69 87.81L102 89.35L102 96.5L101.69 98.04L100.85 99.28L99.61 100.12L98.08 100.43L90.92 100.43L89.39 100.12L88.15 99.28L87.3101 98.04L87 96.5L87 89.35L87.3101 87.81L88.15 86.58L89.39 85.74L90.92 85.43Z" fill-rule="nonzero" fill="url(#paint_linear_11_838_0)"/>
		</g>
		<path id="路径_21925-3" d="M94.5 88.93L96.0699 89.25L97.33 90.1L98.1801 91.36L98.5 92.93L98.1801 94.5L97.33 95.76L96.0699 96.61L94.5 96.93L92.9301 96.61L91.67 95.76L90.8199 94.5L90.5 92.93L90.8199 91.36L91.67 90.1L92.9301 89.25L94.5 88.93Z" fill-rule="nonzero" fill="url(#paint_linear_11_839_0)"/>
		<path id="矩形_4988" d="M39 106.43L121 106.43L121.78 106.59L122.41 107.01L122.84 107.64L123 108.43L123 114.43L122.84 115.21L122.41 115.84L121.78 116.27L121 116.43L39 116.43L38.22 116.27L37.59 115.84L37.16 115.21L37 114.43L37 108.43L37.16 107.64L37.59 107.01L38.22 106.59L39 106.43Z" fill-rule="nonzero" fill="url(#paint_linear_11_841_0)"/>
		<path id="矩形_4988" d="M39 69L121 69L121.78 69.16L122.41 69.58L122.84 70.21L123 71L123 77L122.84 77.78L122.41 78.41L121.78 78.84L121 79L39 79L38.22 78.84L37.59 78.41L37.16 77.78L37 77L37 71L37.16 70.21L37.59 69.58L38.22 69.16L39 69Z" fill-rule="nonzero" fill="url(#paint_linear_11_1283_0)"/>
		<path id="矩形_4988" d="M39 50L121 50L121.78 50.16L122.41 50.58L122.84 51.21L123 52L123 58L122.84 58.78L122.41 59.41L121.78 59.84L121 60L39 60L38.22 59.84L37.59 59.41L37.16 58.78L37 58L37 52L37.16 51.21L37.59 50.58L38.22 50.16L39 50Z" fill-rule="nonzero" fill="url(#paint_linear_11_1289_0)"/>
		<path id="矩形_4988" d="M38.4186 31L96.5814 31L97.1346 31.16L97.5815 31.58L97.8865 32.21L98 33L98 39L97.8865 39.78L97.5815 40.41L97.1346 40.84L96.5814 41L38.4186 41L37.8654 40.84L37.4185 40.41L37.1135 39.78L37 39L37 33L37.1135 32.21L37.4185 31.58L37.8654 31.16L38.4186 31Z" fill-rule="nonzero" fill="url(#paint_linear_11_1295_0)"/>
		<path id="矩形_4989" d="M41 108.43L119 108.43L119.78 108.59L120.41 109.01L120.84 109.64L121 110.43L121 112.43L120.84 113.21L120.41 113.84L119.78 114.27L119 114.43L41 114.43L40.22 114.27L39.59 113.84L39.16 113.21L39 112.43L39 110.43L39.16 109.64L39.59 109.01L40.22 108.59L41 108.43Z" fill-rule="nonzero" fill="url(#paint_linear_11_843_0)"/>
		<path id="矩形_4989" d="M41 71L119 71L119.78 71.16L120.41 71.58L120.84 72.21L121 73L121 75L120.84 75.78L120.41 76.41L119.78 76.84L119 77L41 77L40.22 76.84L39.59 76.41L39.16 75.78L39 75L39 73L39.16 72.21L39.59 71.58L40.22 71.16L41 71Z" fill-rule="nonzero" fill="url(#paint_linear_11_1285_0)"/>
		<path id="矩形_4989" d="M41 52L119 52L119.78 52.16L120.41 52.58L120.84 53.21L121 54L121 56L120.84 56.78L120.41 57.41L119.78 57.84L119 58L41 58L40.22 57.84L39.59 57.41L39.16 56.78L39 56L39 54L39.16 53.21L39.59 52.58L40.22 52.16L41 52Z" fill-rule="nonzero" fill="url(#paint_linear_11_1291_0)"/>
		<path id="矩形_4989" d="M40.3414 33L92.6586 33L93.1818 33.16L93.6042 33.58L93.8927 34.21L94 35L94 37L93.8927 37.78L93.6042 38.41L93.1818 38.84L92.6586 39L40.3414 39L39.8182 38.84L39.3958 38.41L39.1073 37.78L39 37L39 35L39.1073 34.21L39.3958 33.58L39.8182 33.16L40.3414 33Z" fill-rule="nonzero" fill="url(#paint_linear_11_1297_0)"/>
		<path id="矩形_4990" d="M41 108.43L83 108.43L83.78 108.59L84.41 109.01L84.84 109.64L85 110.43L85 112.43L84.84 113.21L84.41 113.84L83.78 114.27L83 114.43L41 114.43L40.22 114.27L39.59 113.84L39.16 113.21L39 112.43L39 110.43L39.16 109.64L39.59 109.01L40.22 108.59L41 108.43Z" fill-rule="nonzero" fill="url(#paint_linear_11_845_0)"/>
		<path id="矩形_4990" d="M41.7391 71L99.2609 71L100.329 71.16L101.192 71.58L101.781 72.21L102 73L102 75L101.781 75.78L101.192 76.41L100.329 76.84L99.2609 77L41.7391 77L40.6709 76.84L39.808 76.41L39.2191 75.78L39 75L39 73L39.2191 72.21L39.808 71.58L40.6709 71.16L41.7391 71Z" fill-rule="nonzero" fill="url(#paint_linear_11_1287_0)"/>
		<path id="矩形_4990" d="M41 52L83 52L83.78 52.16L84.41 52.58L84.84 53.21L85 54L85 56L84.84 56.78L84.41 57.41L83.78 57.84L83 58L41 58L40.22 57.84L39.59 57.41L39.16 56.78L39 56L39 54L39.16 53.21L39.59 52.58L40.22 52.16L41 52Z" fill-rule="nonzero" fill="url(#paint_linear_11_1293_0)"/>
		<path id="矩形_4990" d="M40.1305 33L63.8695 33L64.3104 33.16L64.6665 33.58L64.9095 34.21L65 35L65 37L64.9095 37.78L64.6665 38.41L64.3104 38.84L63.8695 39L40.1305 39L39.6896 38.84L39.3335 38.41L39.0905 37.78L39 37L39 35L39.0905 34.21L39.3335 33.58L39.6896 33.16L40.1305 33Z" fill-rule="nonzero" fill="url(#paint_linear_11_1299_0)"/>
		<path id="路径_21924-7" d="M40.92 85.43L48.08 85.43L49.61 85.74L50.85 86.58L51.6899 87.81L52 89.35L52 96.5L51.6899 98.04L50.85 99.28L49.61 100.12L48.08 100.43L40.92 100.43L39.39 100.12L38.15 99.28L37.3101 98.04L37 96.5L37 89.35L37.3101 87.81L38.15 86.58L39.39 85.74L40.92 85.43Z" fill-rule="nonzero" fill="url(#paint_linear_11_847_0)"/>
		<path id="矩形_4580" d="M44.5 88.93L46.0699 89.25L47.33 90.1L48.1801 91.36L48.5 92.93L48.1801 94.5L47.33 95.76L46.0699 96.61L44.5 96.93L42.9301 96.61L41.67 95.76L40.8199 94.5L40.5 92.93L40.8199 91.36L41.67 90.1L42.9301 89.25L44.5 88.93Z" fill-rule="nonzero" fill="url(#paint_linear_11_849_0)"/>
		<g filter="url(#filter_11_1309_dd)">
			<path id="生  活" d="M31.168 141.272L25.6958 141.272L25.6958 143.121L38.2944 143.121L38.2944 141.272L33.0034 141.272L33.0034 138.486L37.3579 138.486L37.3579 136.75L33.0034 136.75L33.0034 134.173L37.9731 134.173L37.9731 132.409L33.0034 132.409L33.0034 130.659L31.1543 130.659L31.1543 132.409L28.6489 132.409Q28.7754 131.753 28.8745 130.939L27.0117 130.939Q26.6768 133.404 25.4976 135.923L27.5859 135.923Q27.9346 135.14 28.2285 134.173L31.1543 134.173L31.168 136.75L26.6323 136.75L26.6323 138.486L31.168 138.486L31.168 141.272ZM54.2117 136.09L54.2117 137.704L51.0774 137.704L51.0774 143.261L59.1541 143.261L59.1541 137.704L56.0334 137.704L56.0334 136.09L59.6599 136.09L59.6599 134.327L56.0334 134.327L56.0334 132.717Q58.1594 132.577 59.2122 132.481L59.2122 130.717Q55.4592 131.08 51.0227 131.08L51.0227 132.843Q52.7727 132.843 54.2117 132.789L54.2117 134.327L50.5715 134.327L50.5715 136.09L54.2117 136.09ZM50.2947 131.585L47.2561 130.799L47.2561 132.703L50.2947 133.489L50.2947 131.585ZM50.2776 134.915L46.9758 134.091L46.9758 135.995L50.2776 136.791L50.2776 134.915ZM48.5002 137.437C48.2017 139.442 47.6332 141.43 46.7947 143.401L48.7668 143.401Q49.8025 140.91 50.3083 137.437L48.5002 137.437ZM57.3494 139.454L57.3494 141.511L52.8821 141.511L52.8821 139.454L57.3494 139.454Z" fill-rule="evenodd" fill="#FFFFFF"/>
		</g>
	</g>
</svg>
