<svg width="161.000000" height="195.000000" viewBox="0 0 161 195" fill="none" xmlns="http://www.w3.org/2000/svg" xmlns:xlink="http://www.w3.org/1999/xlink">
	<desc>
			Created with Pixso.
	</desc>
	<defs>
		<filter id="filter_11_403_dd" x="0.000000" y="-2.000000" width="161.239990" height="194.750000" filterUnits="userSpaceOnUse" color-interpolation-filters="sRGB">
			<feFlood flood-opacity="0" result="BackgroundImageFix"/>
			<feColorMatrix in="SourceAlpha" type="matrix" values="0 0 0 0 0 0 0 0 0 0 0 0 0 0 0 0 0 0 127 0" result="hardAlpha"/>
			<feOffset dx="0" dy="4"/>
			<feGaussianBlur stdDeviation="5"/>
			<feComposite in2="hardAlpha" operator="out" k2="-1" k3="1"/>
			<feColorMatrix type="matrix" values="0 0 0 0 0 0 0 0 0 0 0 0 0 0 0 0 0 0 0.25 0"/>
			<feBlend mode="normal" in2="BackgroundImageFix" result="effect_dropShadow_1"/>
			<feBlend mode="normal" in="SourceGraphic" in2="effect_dropShadow_1" result="shape"/>
		</filter>
		<filter id="filter_11_1308_dd" x="23.560547" y="130.744629" width="36.285400" height="18.656738" filterUnits="userSpaceOnUse" color-interpolation-filters="sRGB">
			<feFlood flood-opacity="0" result="BackgroundImageFix"/>
			<feColorMatrix in="SourceAlpha" type="matrix" values="0 0 0 0 0 0 0 0 0 0 0 0 0 0 0 0 0 0 127 0" result="hardAlpha"/>
			<feOffset dx="0" dy="5"/>
			<feGaussianBlur stdDeviation="0.333333"/>
			<feComposite in2="hardAlpha" operator="out" k2="-1" k3="1"/>
			<feColorMatrix type="matrix" values="0 0 0 0 0 0 0 0 0 0 0 0 0 0 0 0 0 0 0.25 0"/>
			<feBlend mode="normal" in2="BackgroundImageFix" result="effect_dropShadow_1"/>
			<feBlend mode="normal" in="SourceGraphic" in2="effect_dropShadow_1" result="shape"/>
		</filter>
		<clipPath id="clip11_399">
			<rect id="金融" width="161.000000" height="195.000000" fill="white"/>
		</clipPath>
		<linearGradient id="paint_linear_11_403_0" x1="70.108337" y1="173.749908" x2="71.159515" y2="27.946184" gradientUnits="userSpaceOnUse">
			<stop stop-color="#E3E9EF"/>
			<stop offset="1.000000" stop-color="#F6F9FC"/>
		</linearGradient>
		<linearGradient id="paint_linear_11_405_0" x1="66.577332" y1="8.869995" x2="66.577332" y2="157.813034" gradientUnits="userSpaceOnUse">
			<stop stop-color="#E3E9EF"/>
			<stop offset="1.000000" stop-color="#F6F9FC"/>
		</linearGradient>
		<linearGradient id="paint_linear_11_407_0" x1="91.662155" y1="19.869980" x2="92.652328" y2="150.765976" gradientUnits="userSpaceOnUse">
			<stop stop-color="#E3E9EF"/>
			<stop offset="1.000000" stop-color="#F6F9FC"/>
		</linearGradient>
		<linearGradient id="paint_linear_11_409_0" x1="0.999999" y1="136.672012" x2="83.000008" y2="137.760025" gradientUnits="userSpaceOnUse">
			<stop stop-color="#C067D3"/>
			<stop offset="1.000000" stop-color="#7636B2"/>
		</linearGradient>
		<linearGradient id="paint_linear_11_421_0" x1="115.550209" y1="87.429993" x2="115.640221" y2="94.449997" gradientUnits="userSpaceOnUse">
			<stop stop-color="#E3E9EF"/>
			<stop offset="1.000000" stop-color="#F6F9FC"/>
		</linearGradient>
		<linearGradient id="paint_linear_11_423_0" x1="54.360001" y1="89.429993" x2="37.000000" y2="89.429993" gradientUnits="userSpaceOnUse">
			<stop stop-color="#C067D3"/>
			<stop offset="1.000000" stop-color="#7636B2"/>
		</linearGradient>
		<linearGradient id="paint_linear_11_425_0" x1="118.776001" y1="89.429993" x2="91.000000" y2="89.429993" gradientUnits="userSpaceOnUse">
			<stop stop-color="#C067D3"/>
			<stop offset="1.000000" stop-color="#7636B2"/>
		</linearGradient>
		<linearGradient id="paint_linear_11_427_0" x1="75.755997" y1="89.429993" x2="61.000000" y2="89.429993" gradientUnits="userSpaceOnUse">
			<stop stop-color="#C067D3"/>
			<stop offset="1.000000" stop-color="#7636B2"/>
		</linearGradient>
		<linearGradient id="paint_linear_11_429_0" x1="115.550209" y1="102.429993" x2="115.640221" y2="109.449997" gradientUnits="userSpaceOnUse">
			<stop stop-color="#E3E9EF"/>
			<stop offset="1.000000" stop-color="#F6F9FC"/>
		</linearGradient>
		<linearGradient id="paint_linear_11_431_0" x1="95.738022" y1="110.429993" x2="96.426010" y2="104.429993" gradientUnits="userSpaceOnUse">
			<stop stop-color="#E3E9EF"/>
			<stop offset="1.000000" stop-color="#F6F9FC"/>
		</linearGradient>
		<linearGradient id="paint_linear_11_433_0" x1="90.851997" y1="104.430000" x2="57.000000" y2="104.430000" gradientUnits="userSpaceOnUse">
			<stop stop-color="#C067D3"/>
			<stop offset="1.000000" stop-color="#7636B2"/>
		</linearGradient>
		<linearGradient id="paint_linear_11_435_0" x1="70.820038" y1="31.999884" x2="70.860085" y2="39.019882" gradientUnits="userSpaceOnUse">
			<stop stop-color="#E3E9EF"/>
			<stop offset="1.000000" stop-color="#F6F9FC"/>
		</linearGradient>
		<linearGradient id="paint_linear_11_1272_0" x1="102.119751" y1="50.000053" x2="102.194733" y2="57.020054" gradientUnits="userSpaceOnUse">
			<stop stop-color="#E3E9EF"/>
			<stop offset="1.000000" stop-color="#F6F9FC"/>
		</linearGradient>
		<linearGradient id="paint_linear_11_1277_0" x1="115.556244" y1="67.999924" x2="115.646255" y2="75.019928" gradientUnits="userSpaceOnUse">
			<stop stop-color="#E3E9EF"/>
			<stop offset="1.000000" stop-color="#F6F9FC"/>
		</linearGradient>
		<linearGradient id="paint_linear_11_437_0" x1="61.587994" y1="40.000004" x2="61.875996" y2="34.000004" gradientUnits="userSpaceOnUse">
			<stop stop-color="#E3E9EF"/>
			<stop offset="1.000000" stop-color="#F6F9FC"/>
		</linearGradient>
		<linearGradient id="paint_linear_11_1274_0" x1="84.810043" y1="58.000004" x2="85.370049" y2="52.000004" gradientUnits="userSpaceOnUse">
			<stop stop-color="#E3E9EF"/>
			<stop offset="1.000000" stop-color="#F6F9FC"/>
		</linearGradient>
		<linearGradient id="paint_linear_11_1279_0" x1="95.737991" y1="76.000000" x2="96.425995" y2="70.000000" gradientUnits="userSpaceOnUse">
			<stop stop-color="#E3E9EF"/>
			<stop offset="1.000000" stop-color="#F6F9FC"/>
		</linearGradient>
		<linearGradient id="paint_linear_11_438_0" x1="56.096001" y1="34.000000" x2="37.000000" y2="34.000000" gradientUnits="userSpaceOnUse">
			<stop stop-color="#C067D3"/>
			<stop offset="1.000000" stop-color="#7636B2"/>
		</linearGradient>
		<linearGradient id="paint_linear_11_1281_0" x1="99.496002" y1="70.000000" x2="37.000008" y2="70.000000" gradientUnits="userSpaceOnUse">
			<stop stop-color="#C067D3"/>
			<stop offset="1.000000" stop-color="#7636B2"/>
		</linearGradient>
		<linearGradient id="paint_linear_11_1282_0" x1="73.455994" y1="52.000000" x2="36.999996" y2="52.000000" gradientUnits="userSpaceOnUse">
			<stop stop-color="#C067D3"/>
			<stop offset="1.000000" stop-color="#7636B2"/>
		</linearGradient>
	</defs>
	<g clip-path="url(#clip11_399)">
		<g filter="url(#filter_11_403_dd)">
			<path id="路径_20698-2" d="M29.58 9L100.1 9L102.97 9.28003L105.68 10.11L108.19 11.45L110.41 13.28L141.97 44.98L143.8 47.22L145.13 49.73L145.96 52.46L146.24 55.34L146.24 159.11L146 161.77L145.34 164.22L144.26 166.49L142.81 168.54L141.08 170.28L139.03 171.74L136.77 172.83L134.33 173.5L131.66 173.75L29.58 173.75L26.92 173.5L24.47 172.83L22.21 171.74L20.16 170.28L18.4301 168.54L16.98 166.49L15.9 164.22L15.24 161.77L15 159.11L15 23.64L15.24 20.97L15.9 18.53L16.98 16.26L18.4301 14.21L20.16 12.46L22.21 11.01L24.47 9.91998L26.92 9.25L29.58 9Z" fill-rule="nonzero" fill="url(#paint_linear_11_403_0)"/>
		</g>
		<path id="路径_20699" d="M141.97 44.86L110.41 13.16L108.19 11.33L105.68 9.98999L102.97 9.15997L100.1 8.87L29.58 8.87L26.92 9.12L24.47 9.79999L22.21 10.88L20.16 12.34L18.4301 14.08L16.98 16.14L15.9 18.4L15.24 20.85L15 23.52L15 158.98L15.24 161.65L15.9 164.1L16.98 166.36L18.4301 168.42L20.16 170.16L22.21 171.62L24.47 172.7L26.92 173.37L29.58 173.63L131.66 173.63L134.32 173.37L136.77 172.7L139.03 171.62L141.08 170.16L142.81 168.42L144.26 166.36L145.34 164.1L146 161.65L146.24 158.98L146.24 55.21L145.96 52.34L145.13 49.61L143.79 47.1L141.97 44.86ZM142.24 158.99L142.06 160.92L141.58 162.7L140.8 164.35L139.75 165.84L138.49 167.1L137.01 168.16L135.37 168.95L133.59 169.44L131.66 169.63L29.58 169.63L27.65 169.44L25.87 168.95L24.23 168.16L22.75 167.1L21.49 165.84L20.4399 164.35L19.66 162.7L19.1801 160.92L19 158.99L19 23.52L19.1801 21.58L19.66 19.8L20.4399 18.16L21.49 16.67L22.75 15.4L24.23 14.34L25.87 13.55L27.65 13.06L29.58 12.87L100.1 12.87L102.18 13.08L104.15 13.68L105.96 14.66L107.58 15.98L139.13 47.68L140.46 49.31L141.43 51.14L142.03 53.12L142.24 55.21L142.24 158.99Z" fill-rule="nonzero" fill="url(#paint_linear_11_405_0)"/>
		<path id="路径_20700" d="M135 154.09L134.86 155.85L134.45 157.46L133.77 158.96L132.3 160.93L130.38 162.47L128.9 163.21L127.31 163.67L125.55 163.87L34.45 163.87L32.6899 163.67L31.1 163.21L29.62 162.47L27.7 160.93L26.23 158.96L25.55 157.46L25.14 155.85L25 154.09L25 29.65L25.13 27.89L25.55 26.28L26.23 24.78L27.7 22.81L29.62 21.27L31.1 20.53L32.6899 20.07L34.45 19.87L97.39 19.87L99.23 20.06L101 20.61L102.63 21.52L104.06 22.73L132.23 51.84L133.41 53.33L134.28 55.02L134.82 56.86L135 58.77L135 154.09Z" fill-rule="nonzero" fill="url(#paint_linear_11_407_0)"/>
		<path id="路径_21932" d="M7 121.76L77 121.76L78.63 121.99L80.03 122.57L81.24 123.51L82.1899 124.73L82.77 126.13L83 127.76L83 147.76L82.77 149.39L82.1899 150.78L81.24 152L80.03 152.94L78.63 153.53L77 153.76L7 153.76L5.37 153.53L3.96997 152.94L2.76001 152L1.81006 150.78L1.22998 149.39L1 147.76L1 127.76L1.22998 126.13L1.81006 124.73L2.76001 123.51L3.96997 122.57L5.37 121.99L7 121.76Z" fill-rule="nonzero" fill="url(#paint_linear_11_409_0)"/>
		<path id="矩形_4993" d="M37 87.43L123 87.43L123.78 87.59L124.41 88.01L124.84 88.64L125 89.43L125 95.43L124.84 96.21L124.41 96.84L123.78 97.27L123 97.43L37 97.43L36.22 97.27L35.59 96.84L35.16 96.21L35 95.43L35 89.43L35.16 88.64L35.59 88.01L36.22 87.59L37 87.43Z" fill-rule="nonzero" fill="url(#paint_linear_11_421_0)"/>
		<path id="矩形_4994" d="M40 89.43L54 89.43L55.1801 89.67L56.12 90.31L56.76 91.25L57 92.43L56.76 93.61L56.12 94.55L55.1801 95.19L54 95.43L40 95.43L38.8199 95.19L37.88 94.55L37.24 93.61L37 92.43L37.24 91.25L37.88 90.31L38.8199 89.67L40 89.43Z" fill-rule="nonzero" fill="url(#paint_linear_11_423_0)"/>
		<path id="矩形_4995" d="M94 89.43L120 89.43L121.18 89.67L122.12 90.31L122.76 91.25L123 92.43L122.76 93.61L122.12 94.55L121.18 95.19L120 95.43L94 95.43L92.8199 95.19L91.88 94.55L91.24 93.61L91 92.43L91.24 91.25L91.88 90.31L92.8199 89.67L94 89.43Z" fill-rule="nonzero" fill="url(#paint_linear_11_425_0)"/>
		<path id="矩形_4996" d="M64 89.43L75 89.43L76.1801 89.67L77.12 90.31L77.76 91.25L78 92.43L77.76 93.61L77.12 94.55L76.1801 95.19L75 95.43L64 95.43L62.8199 95.19L61.88 94.55L61.24 93.61L61 92.43L61.24 91.25L61.88 90.31L62.8199 89.67L64 89.43Z" fill-rule="nonzero" fill="url(#paint_linear_11_427_0)"/>
		<path id="矩形_4997" d="M37 102.43L123 102.43L123.78 102.59L124.41 103.01L124.84 103.64L125 104.43L125 110.43L124.84 111.21L124.41 111.84L123.78 112.27L123 112.43L37 112.43L36.22 112.27L35.59 111.84L35.16 111.21L35 110.43L35 104.43L35.16 103.64L35.59 103.01L36.22 102.59L37 102.43Z" fill-rule="nonzero" fill="url(#paint_linear_11_429_0)"/>
		<path id="矩形_4998" d="M39 104.43L121 104.43L121.78 104.59L122.41 105.01L122.84 105.64L123 106.43L123 108.43L122.84 109.21L122.41 109.84L121.78 110.27L121 110.43L39 110.43L38.22 110.27L37.59 109.84L37.16 109.21L37 108.43L37 106.43L37.16 105.64L37.59 105.01L38.22 104.59L39 104.43Z" fill-rule="nonzero" fill="url(#paint_linear_11_431_0)"/>
		<path id="矩形_4999" d="M60 104.43L93 104.43L94.1801 104.67L95.12 105.31L95.76 106.25L96 107.43L95.76 108.61L95.12 109.55L94.1801 110.19L93 110.43L60 110.43L58.8199 110.19L57.88 109.55L57.24 108.61L57 107.43L57.24 106.25L57.88 105.31L58.8199 104.67L60 104.43Z" fill-rule="nonzero" fill="url(#paint_linear_11_433_0)"/>
		<path id="矩形_5000" d="M37 32L73 32L73.78 32.16L74.41 32.58L74.84 33.21L75 34L75 40L74.84 40.78L74.41 41.41L73.78 41.84L73 42L37 42L36.22 41.84L35.59 41.41L35.16 40.78L35 40L35 34L35.16 33.21L35.59 32.58L36.22 32.16L37 32Z" fill-rule="nonzero" fill="url(#paint_linear_11_435_0)"/>
		<path id="矩形_5000" d="M38.75 50L106.25 50L107.713 50.16L108.894 50.58L109.7 51.21L110 52L110 58L109.7 58.78L108.894 59.41L107.713 59.84L106.25 60L38.75 60L37.2875 59.84L36.1062 59.41L35.3 58.78L35 58L35 52L35.3 51.21L36.1062 50.58L37.2875 50.16L38.75 50Z" fill-rule="nonzero" fill="url(#paint_linear_11_1272_0)"/>
		<path id="矩形_5000" d="M39.5 68L120.5 68L122.255 68.16L123.672 68.58L124.64 69.21L125 70L125 76L124.64 76.78L123.672 77.41L122.255 77.84L120.5 78L39.5 78L37.745 77.84L36.3275 77.41L35.36 76.78L35 76L35 70L35.36 69.21L36.3275 68.58L37.745 68.16L39.5 68Z" fill-rule="nonzero" fill="url(#paint_linear_11_1277_0)"/>
		<path id="矩形_5001" d="M39 34L71 34L71.78 34.16L72.41 34.58L72.84 35.21L73 36L73 38L72.84 38.78L72.41 39.41L71.78 39.84L71 40L39 40L38.22 39.84L37.59 39.41L37.16 38.78L37 38L37 36L37.16 35.21L37.59 34.58L38.22 34.16L39 34Z" fill-rule="nonzero" fill="url(#paint_linear_11_437_0)"/>
		<path id="矩形_5001" d="M40.8889 52L103.111 52L104.628 52.16L105.853 52.58L106.689 53.21L107 54L107 56L106.689 56.78L105.853 57.41L104.628 57.84L103.111 58L40.8889 58L39.3722 57.84L38.1472 57.41L37.3112 56.78L37 56L37 54L37.3112 53.21L38.1472 52.58L39.3722 52.16L40.8889 52Z" fill-rule="nonzero" fill="url(#paint_linear_11_1274_0)"/>
		<path id="矩形_5001" d="M41.7778 70L118.222 70L120.086 70.16L121.591 70.58L122.618 71.21L123 72L123 74L122.618 74.78L121.591 75.41L120.086 75.84L118.222 76L41.7778 76L39.9144 75.84L38.4094 75.41L37.3822 74.78L37 74L37 72L37.3822 71.21L38.4094 70.58L39.9144 70.16L41.7778 70Z" fill-rule="nonzero" fill="url(#paint_linear_11_1279_0)"/>
		<path id="矩形_5002" d="M40 34L56 34L57.1801 34.24L58.12 34.88L58.76 35.82L59 37L58.76 38.18L58.12 39.12L57.1801 39.76L56 40L40 40L38.8199 39.76L37.88 39.12L37.24 38.18L37 37L37.24 35.82L37.88 34.88L38.8199 34.24L40 34Z" fill-rule="nonzero" fill="url(#paint_linear_11_438_0)"/>
		<path id="矩形_5002" d="M40 70L106 70L107.18 70.24L108.12 70.88L108.76 71.82L109 73L108.76 74.18L108.12 75.12L107.18 75.76L106 76L40 76L38.8199 75.76L37.88 75.12L37.24 74.18L37 73L37.24 71.82L37.88 70.88L38.8199 70.24L40 70Z" fill-rule="nonzero" fill="url(#paint_linear_11_1281_0)"/>
		<path id="矩形_5002" d="M40 52L76 52L77.1801 52.24L78.12 52.88L78.76 53.82L79 55L78.76 56.18L78.12 57.12L77.1801 57.76L76 58L40 58L38.8199 57.76L37.88 57.12L37.24 56.18L37 55L37.24 53.82L37.88 52.88L38.8199 52.24L40 52Z" fill-rule="nonzero" fill="url(#paint_linear_11_1282_0)"/>
		<g filter="url(#filter_11_1308_dd)">
			<path id="金  融" d="M55.0657 141.566L53.261 141.566L53.261 143.203L58.8459 143.203L58.5657 139.816L57.3625 139.816L57.5027 141.566L56.7473 141.566L56.7473 139.242L58.4255 139.242L58.4255 131.934L56.7883 131.934L56.7883 130.745L55.0793 130.745L55.0793 131.934L53.4011 131.934L53.4011 139.242L55.0657 139.242L55.0657 141.566ZM35.8438 135.738Q36.6093 136.096 37.4395 136.316L37.4395 134.453Q35.7749 133.811 34.8008 132.922Q34.5487 132.692 34.3224 132.439Q33.6746 131.714 33.2388 130.799L28.7612 130.799Q28.3254 131.714 27.6776 132.439Q27.4513 132.692 27.1992 132.922Q26.2251 133.811 24.5605 134.453L24.5605 136.316Q25.3907 136.096 26.1562 135.738Q26.809 135.433 27.4146 135.027L27.4146 135.909L30.0908 135.909L30.0908 137.27L25.6646 137.27L25.6646 138.989L30.0908 138.989L30.0908 141.48L28.8706 141.48L28.0879 139.607L26.3379 139.607L27.1206 141.48L24.9365 141.48L24.9365 143.248L37.0635 143.248L37.0635 141.48L34.8931 141.48L35.6758 139.607L33.9258 139.607L33.1431 141.48L31.9092 141.48L31.9092 138.989L36.3354 138.989L36.3354 137.27L31.9092 137.27L31.9092 135.909L34.5854 135.909L34.5854 135.027Q35.191 135.433 35.8438 135.738ZM53.1208 130.939L45.9807 130.939L45.9807 132.607L53.1208 132.607L53.1208 130.939ZM32.2 132.603Q32.7273 133.475 33.519 134.187L28.481 134.187Q29.2727 133.475 29.8 132.603Q29.8123 132.583 29.8242 132.563L32.1758 132.563Q32.1877 132.583 32.2 132.603ZM52.4475 133.137L46.6506 133.137L46.6506 136.483L52.4475 136.483L52.4475 133.137ZM55.2776 133.698L55.2776 137.478L54.5906 137.478L54.5906 133.698L55.2776 133.698ZM57.2361 133.698L57.2361 137.478L56.5491 137.478L56.5491 133.698L57.2361 133.698ZM50.6428 134.467L50.6428 135.154L48.4587 135.154L48.4587 134.467L50.6428 134.467ZM51.2854 143.401L53.0217 143.401L53.0217 137.017L46.0764 137.017L46.0764 143.401L47.8127 143.401L47.8127 138.695L51.2854 138.695L51.2854 143.401ZM48.4861 140.096L48.0657 140.096L48.0657 141.58L48.7937 141.58L48.7937 143.401L50.3044 143.401L50.3044 141.58L51.0325 141.58L51.0325 140.096L50.6155 140.096L50.9368 138.961L49.8875 138.961L49.5627 140.096L49.5354 140.096L49.2141 138.961L48.1648 138.961L48.4861 140.096Z" fill-rule="evenodd" fill="#FFFFFF"/>
		</g>
	</g>
</svg>
